<svg width="47" height="42" viewBox="0 0 47 42" fill="none" xmlns="http://www.w3.org/2000/svg">
<path fill-rule="evenodd" clip-rule="evenodd" d="M8.55382 25.0373C8.45213 20.5852 7.18536 16.5809 6.06567 12.3113C5.84687 11.4775 4.9239 10.9638 4.00392 11.1599C3.08338 11.3561 2.51486 12.1937 2.73311 13.0276C3.79496 17.0762 5.03244 20.8739 5.12997 25.1026C5.14949 25.958 5.93349 26.6389 6.87779 26.6185C7.82302 26.6032 8.57389 25.8925 8.55382 25.0373Z" fill="#777AFF"/>
<path fill-rule="evenodd" clip-rule="evenodd" d="M20.6088 30.7936C26.4305 22.5563 31.2658 12.6027 33.8906 3.099C34.1191 2.26904 33.5603 1.42672 32.6437 1.22137C31.727 1.01601 30.7959 1.51935 30.5673 2.34931C28.0289 11.5383 23.3526 21.1649 17.7222 29.1262C17.2138 29.8476 17.4477 30.806 18.2439 31.2649C19.0401 31.7238 20.1005 31.515 20.6088 30.7936Z" fill="#777AFF"/>
<path fill-rule="evenodd" clip-rule="evenodd" d="M24.6243 37.2782C31.9875 36.622 38.7239 33.0673 44.3837 28.9774C45.1212 28.4408 45.2413 27.4662 44.6526 26.8021C44.0619 26.1332 42.9833 26.0258 42.2444 26.5573C37.0904 30.2844 30.9944 33.5986 24.2883 34.1971C23.3474 34.2807 22.6595 35.0403 22.752 35.8887C22.8439 36.7372 23.6839 37.3618 24.6243 37.2782Z" fill="#777AFF"/>
</svg>
