<svg width="225" height="310" viewBox="0 0 225 310" fill="none" xmlns="http://www.w3.org/2000/svg">
<path d="M70.8906 0.195059C85.3487 -1.7916 84.7226 12.0518 84.7226 12.0518L77.4426 12.8381C79.0078 8.99112 76.62 4.93356 71.9244 5.1582C67.2288 5.38284 68.0004 10.9778 70.5047 13.2593C72.6887 15.26 76.0375 18.0188 76.0375 18.0188L77.7119 24.9055L70.927 26.2182L70.2718 19.6826C67.6442 18.3286 65.3422 16.4557 63.5159 14.1859C62.0017 12.3186 59.7012 1.73946 70.8906 0.195059Z" fill="#3E369C"/>
<path d="M74.8727 28.4212C77.1587 27.979 79.2844 28.9267 79.6193 30.5272C79.9542 32.1278 78.3744 33.7985 76.0885 34.2408C73.8026 34.6831 71.7205 33.7424 71.3492 32.1348C70.9779 30.5272 72.6232 28.8635 74.8727 28.4212Z" fill="#3E369C"/>
<path d="M55.5222 31.4904C63.0715 26.4922 66.7042 34.4529 66.7042 34.4529L62.8167 36.8537C62.591 34.2704 60.0794 32.6417 57.5023 34.0457C54.9252 35.4497 57.0073 38.349 59.0675 38.9597C60.8802 39.5003 63.5593 40.1531 63.5593 40.1531L66.4713 43.5719L63.0351 46.1342L60.7783 42.6242C58.9119 42.5674 57.0787 42.1321 55.3984 41.3465C54.0225 40.6937 49.6763 35.3655 55.5222 31.4904Z" fill="#3E369C"/>
<path d="M65.9253 46.2815C67.0828 45.418 68.5534 45.3829 69.2013 46.1972C69.8492 47.0115 69.4488 48.3734 68.2913 49.2299C67.1338 50.0863 65.6705 50.1354 65.0153 49.3211C64.3601 48.5068 64.7751 47.1449 65.9253 46.2815Z" fill="#3E369C"/>
<path d="M155.374 188.486L155.593 391.581H125.352L114.344 184.969L155.374 188.486Z" fill="#4D52A8"/>
<path d="M78.8251 187.622L66.2307 391.581H98.6412L122.054 181.676L78.8251 187.622Z" fill="#4D52A8"/>
<path d="M117.555 209.186C117.614 209.186 117.672 209.164 117.715 209.125C117.758 209.086 117.784 209.033 117.788 208.975L118.633 182.363C118.634 182.333 118.628 182.304 118.618 182.276C118.607 182.249 118.59 182.223 118.57 182.202C118.549 182.18 118.523 182.163 118.496 182.151C118.468 182.139 118.437 182.132 118.407 182.131C118.376 182.13 118.346 182.135 118.317 182.145C118.289 182.156 118.262 182.172 118.24 182.192C118.218 182.212 118.2 182.236 118.187 182.263C118.175 182.29 118.168 182.319 118.167 182.349L117.322 208.94C117.321 208.97 117.326 208.999 117.337 209.026C117.348 209.053 117.365 209.078 117.386 209.099C117.407 209.12 117.432 209.136 117.46 209.148C117.488 209.159 117.518 209.165 117.548 209.165L117.555 209.186Z" fill="#383D84"/>
<path d="M117.693 204.87H121.246C121.305 204.87 121.363 204.849 121.406 204.81C121.449 204.77 121.475 204.717 121.479 204.66L122.287 186.478C122.287 186.419 122.264 186.362 122.222 186.319C122.18 186.276 122.123 186.25 122.061 186.246C122.001 186.244 121.942 186.265 121.897 186.305C121.852 186.344 121.825 186.398 121.821 186.457L121.02 204.456H117.693C117.66 204.45 117.625 204.452 117.593 204.46C117.56 204.469 117.529 204.484 117.503 204.505C117.477 204.526 117.456 204.552 117.441 204.582C117.427 204.612 117.419 204.644 117.419 204.677C117.419 204.71 117.427 204.743 117.441 204.772C117.456 204.802 117.477 204.828 117.503 204.849C117.529 204.871 117.56 204.886 117.593 204.894C117.625 204.903 117.66 204.904 117.693 204.898V204.87Z" fill="#383D84"/>
<path d="M82.1525 203.073C84.1048 203.081 85.9964 202.419 87.4887 201.205C93.3782 196.558 94.3392 184.961 94.3756 184.477C94.3796 184.416 94.3591 184.357 94.3183 184.311C94.2774 184.265 94.2196 184.236 94.1572 184.231C94.1266 184.229 94.0959 184.233 94.0669 184.243C94.0379 184.252 94.0111 184.267 93.9881 184.287C93.9651 184.306 93.9463 184.33 93.9329 184.357C93.9194 184.383 93.9115 184.412 93.9097 184.442C93.9097 184.561 92.9269 196.333 87.1975 200.861C86.3505 201.545 85.3639 202.05 84.3016 202.343C83.2394 202.635 82.1252 202.709 81.0313 202.56C81.0011 202.555 80.9702 202.556 80.9404 202.563C80.9106 202.57 80.8826 202.583 80.8581 202.601C80.8335 202.618 80.813 202.641 80.7977 202.666C80.7825 202.692 80.7728 202.72 80.7693 202.75C80.7652 202.779 80.7673 202.809 80.7753 202.838C80.7834 202.867 80.7973 202.894 80.8163 202.917C80.8353 202.941 80.8589 202.96 80.8858 202.975C80.9127 202.99 80.9424 202.999 80.9731 203.002C81.3643 203.05 81.7582 203.073 82.1525 203.073Z" fill="#383D84"/>
<path d="M154.107 203.704C154.141 203.703 154.173 203.697 154.203 203.683C154.234 203.67 154.26 203.651 154.282 203.626C154.324 203.584 154.347 203.527 154.347 203.468C154.347 203.41 154.324 203.353 154.282 203.311C154.217 203.261 148.094 197.968 149.274 185.529C149.277 185.499 149.273 185.47 149.264 185.441C149.255 185.413 149.241 185.386 149.221 185.364C149.201 185.341 149.177 185.322 149.15 185.308C149.123 185.294 149.093 185.286 149.062 185.283C149.032 185.279 149.001 185.281 148.972 185.29C148.942 185.298 148.915 185.312 148.892 185.332C148.868 185.351 148.849 185.375 148.836 185.401C148.823 185.428 148.816 185.457 148.815 185.487C147.606 198.179 153.911 203.598 153.976 203.647C154.013 203.679 154.059 203.699 154.107 203.704Z" fill="#383D84"/>
<path d="M58.645 153.139C60.7796 153.143 62.8617 152.501 64.5976 151.304C66.3335 150.106 67.6356 148.413 68.3201 146.463L90.4805 82.7355C90.9068 81.5103 91.0788 80.2162 90.9865 78.9269C90.8942 77.6377 90.5395 76.3785 89.9426 75.2215C89.3457 74.0644 88.5182 73.0321 87.5076 72.1833C86.4969 71.3346 85.3228 70.6862 84.0522 70.275C82.7817 69.8639 81.4396 69.698 80.1026 69.787C78.7655 69.876 77.4598 70.2181 76.2599 70.7937C75.06 71.3693 73.9894 72.1672 73.1092 73.1417C72.2291 74.1163 71.5566 75.2485 71.1302 76.4737L48.9626 140.145C48.444 141.626 48.299 143.204 48.5397 144.749C48.7803 146.295 49.3997 147.763 50.3464 149.031C51.293 150.299 52.5397 151.332 53.9829 152.043C55.4262 152.753 57.0244 153.122 58.645 153.118V153.139Z" fill="#EFAD9C"/>
<path d="M67.6728 138.98L40.4674 82.3773C39.8245 80.8143 38.564 79.5616 36.9632 78.8948C35.3624 78.228 33.5525 78.2017 31.9317 78.8217C30.3108 79.4417 29.0117 80.6572 28.3202 82.2008C27.6287 83.7444 27.6014 85.4897 28.2443 87.0526L48.6647 146.238C49.0887 147.466 49.7594 148.602 50.6384 149.58C51.5175 150.558 52.5877 151.359 53.7879 151.938C54.9882 152.517 56.295 152.863 57.6337 152.955C58.9725 153.047 60.3169 152.884 61.5904 152.476C62.8638 152.067 64.0412 151.42 65.0555 150.572C66.0697 149.725 66.9009 148.693 67.5015 147.535C68.1021 146.378 68.4605 145.118 68.5561 143.827C68.6517 142.536 68.4827 141.239 68.0587 140.012C67.9494 139.661 67.8206 139.317 67.6728 138.98Z" fill="#EFAD9C"/>
<path d="M40.6564 85.634C41.7848 82.3486 37.8681 78.4665 34.6649 76.7677C28.9501 73.7351 14.8706 72.1205 14.1936 73.2577C13.5165 74.3949 21.7794 77.9611 21.7794 77.9611C21.7794 77.9611 15.5404 77.7996 13.269 78.6631C13.269 78.6631 7.05918 71.6431 5.73422 72.0503C4.40926 72.4574 6.99367 76.7888 6.99367 76.7888C6.99367 76.7888 0.951267 72.9137 0.0995102 73.6929C-0.752251 74.4722 7.81629 81.7238 9.79645 82.8891C11.7766 84.0545 23.4465 89.0527 29.8747 89.6143C36.3029 90.1759 39.5571 88.7859 40.6564 85.634Z" fill="#EFAD9C"/>
<path d="M17.3604 85.8176C17.3887 85.8176 17.4165 85.8112 17.4418 85.799C17.4671 85.7868 17.4891 85.7691 17.506 85.7474C17.5403 85.7122 17.5594 85.6658 17.5594 85.6175C17.5594 85.5692 17.5403 85.5228 17.506 85.4876C15.7151 84.0415 12.905 81.4792 12.9851 80.7842C12.9843 80.7705 12.9881 80.757 12.996 80.7456C13.0039 80.7342 13.0154 80.7256 13.0288 80.721C13.7568 80.342 17.9574 82.3356 20.418 83.6835H20.4762H20.5345C22.3501 83.5571 24.1752 83.6729 25.9581 84.0275C26.0082 84.038 26.0607 84.0292 26.1042 84.003C26.1478 83.9768 26.1789 83.9352 26.191 83.8871C26.1964 83.8635 26.1969 83.8392 26.1924 83.8156C26.188 83.7919 26.1787 83.7693 26.1652 83.749C26.1517 83.7288 26.1341 83.7114 26.1136 83.6977C26.093 83.684 26.0699 83.6744 26.0454 83.6694C24.2422 83.3025 22.3944 83.182 20.5563 83.3114C19.3551 82.6515 14.0043 79.8014 12.8468 80.3771C12.7775 80.4098 12.7182 80.4594 12.6748 80.5209C12.6314 80.5825 12.6053 80.6539 12.5993 80.7281C12.4828 81.8162 16.4577 85.1015 17.2585 85.7544C17.2847 85.7853 17.3204 85.8074 17.3604 85.8176Z" fill="#FFCCC2"/>
<path d="M14.8921 81.0658C14.9311 81.0637 14.9689 81.0516 15.0014 81.0307C15.0421 81.0013 15.0694 80.9578 15.0775 80.9093C15.0857 80.8609 15.074 80.8113 15.045 80.7709L13.5235 78.7702C13.4871 78.7372 13.4389 78.7187 13.3888 78.7188C13.3388 78.7187 13.2906 78.7372 13.2541 78.7702C13.2139 78.7984 13.1868 78.8407 13.1786 78.888C13.1704 78.9352 13.1819 78.9837 13.2105 79.023L14.732 81.0237C14.7539 81.0415 14.7796 81.0545 14.8072 81.0618C14.8349 81.0691 14.8639 81.0704 14.8921 81.0658Z" fill="#FFCCC2"/>
<path d="M14.1278 84.737C14.1614 84.7362 14.1942 84.7275 14.2234 84.7116C14.2526 84.6957 14.2773 84.6731 14.2953 84.6457C14.3081 84.6246 14.3164 84.6012 14.3197 84.577C14.323 84.5527 14.3212 84.5281 14.3144 84.5045C14.3076 84.4809 14.2959 84.4589 14.2801 84.4397C14.2644 84.4206 14.2447 84.4047 14.2225 84.393C13.1741 83.8033 10.3786 82.1747 9.99277 81.6973C9.51957 81.1077 7.31374 76.9237 7.2919 76.8816C7.28116 76.8598 7.26585 76.8403 7.24693 76.8244C7.22802 76.8085 7.20592 76.7966 7.18199 76.7893C7.15807 76.7821 7.13283 76.7797 7.1079 76.7823C7.08297 76.7849 7.05887 76.7924 7.0371 76.8044C7.01452 76.8149 6.99432 76.8296 6.97769 76.8476C6.96105 76.8657 6.94829 76.8868 6.94016 76.9096C6.93204 76.9325 6.9287 76.9567 6.93034 76.9808C6.93198 77.0049 6.93858 77.0285 6.94974 77.0501C7.04438 77.2256 9.19196 81.3042 9.687 81.922C10.182 82.5397 13.64 84.4913 14.055 84.73C14.0784 84.7377 14.1033 84.7401 14.1278 84.737Z" fill="#FFCCC2"/>
<path d="M66.7771 136.341C66.829 136.358 66.8854 136.358 66.9373 136.341C66.9923 136.314 67.0339 136.267 67.053 136.21C67.0721 136.154 67.0671 136.092 67.0392 136.039L60.8439 124.449C60.8146 124.397 60.7654 124.359 60.7068 124.342C60.6482 124.325 60.585 124.33 60.5309 124.358C60.5038 124.37 60.4797 124.388 60.4601 124.41C60.4405 124.432 60.4258 124.458 60.4169 124.485C60.408 124.513 60.4052 124.542 60.4085 124.571C60.4118 124.6 60.4213 124.628 60.4363 124.653L66.6243 136.243C66.6602 136.293 66.715 136.328 66.7771 136.341Z" fill="#FFCCC2"/>
<path d="M89.585 67.4819C74.3406 65.6075 70.657 69.2439 68.6259 74.4668C66.5947 79.6896 56.8031 111.434 56.8031 111.434C56.8031 111.434 49.6469 94.6633 47.8851 93.3857C46.1234 92.108 31.8691 97.1624 30.7844 99.9494C29.6997 102.736 41.9083 140.342 46.4146 147.903C50.9209 155.464 63.8356 158.201 69.7106 148.851C75.5855 139.5 83.2805 114.509 83.2805 114.509L89.585 67.4819Z" fill="#724FFF"/>
<path d="M214.648 47.5307L156.175 25.3966C154.592 24.6929 152.784 24.6244 151.148 25.2063C149.513 25.7882 148.184 26.9728 147.454 28.4995C146.724 30.0262 146.653 31.7699 147.257 33.3471C147.86 34.9242 149.089 36.2057 150.672 36.9094L206.102 65.4106C208.495 66.6404 211.297 66.903 213.891 66.1407C216.485 65.3785 218.658 63.6538 219.934 61.346C221.209 59.0383 221.481 56.3366 220.691 53.8352C219.9 51.3339 218.112 49.2378 215.719 48.008C215.371 47.8304 215.014 47.671 214.648 47.5307Z" fill="#EFAD9C"/>
<path d="M157.311 35.9763C157.311 35.9763 146.529 50.8377 144.556 50.9289C142.583 51.0202 147.468 39.7531 147.468 39.7531C147.468 39.7531 117.795 35.0286 117.831 33.3649C117.868 31.7011 130.986 33.2315 130.986 33.2315C130.986 33.2315 116.666 29.6653 117.067 27.9946C117.431 26.4783 132.544 29.3354 132.544 29.3354C132.544 29.3354 118.064 24.0844 119.258 23.0174C120.452 21.9504 133.986 25.7201 133.986 25.7201C133.986 25.7201 122.993 20.1041 123.866 19.4793C124.74 18.8545 137.014 22.4418 137.014 22.4418C143.086 23.228 150.322 23.5369 153.125 24.274C164.27 27.2083 157.311 35.9763 157.311 35.9763Z" fill="#EFAD9C"/>
<path d="M221.659 57.1334C221.726 55.5268 221.383 53.9288 220.661 52.4797C219.938 51.0306 218.858 49.7745 217.515 48.8217C216.172 47.8689 214.607 47.2484 212.957 47.0146C211.307 46.7808 209.623 46.9409 208.052 47.4809L140.967 70.331C139.703 70.7615 138.539 71.4279 137.542 72.2922C136.544 73.1565 135.733 74.2018 135.155 75.3683C134.577 76.5348 134.242 77.7998 134.171 79.0909C134.1 80.382 134.293 81.6741 134.739 82.8933C135.186 84.1124 135.877 85.2349 136.773 86.1965C137.669 87.1581 138.753 87.9401 139.963 88.4978C141.173 89.0555 142.485 89.3779 143.824 89.4467C145.163 89.5155 146.502 89.3294 147.767 88.8989L214.852 66.0488C216.784 65.3942 218.467 64.1935 219.681 62.6032C220.895 61.0129 221.584 59.1068 221.659 57.1334Z" fill="#EFAD9C"/>
<path d="M201.545 62.2231C201.546 62.19 201.539 62.1571 201.525 62.1267C201.511 62.0964 201.491 62.0694 201.465 62.0476L191.68 53.9536C191.637 53.912 191.578 53.8887 191.517 53.8887C191.455 53.8887 191.396 53.912 191.353 53.9536C191.311 53.9965 191.288 54.0529 191.288 54.1115C191.288 54.1702 191.311 54.2266 191.353 54.2695L201.137 62.3565C201.168 62.3899 201.208 62.4139 201.252 62.4254C201.297 62.437 201.344 62.4355 201.387 62.4212C201.431 62.4069 201.469 62.3805 201.497 62.3452C201.525 62.31 201.542 62.2675 201.545 62.2231Z" fill="#FFCCC2"/>
<path d="M140.079 66.5681L180.687 55.1325C180.687 55.1325 160.696 45.4028 159.786 43.5074C158.876 41.612 164.424 29.6991 168.34 28.6952C172.257 27.6913 212.02 43.1283 219.846 48.2248C227.672 53.3214 223.77 64.1532 216.126 67.4807C208.482 70.8082 143.814 96.0311 143.814 96.0311L140.079 66.5681Z" fill="#724FFF"/>
<path d="M149.922 113.076C152.877 135.603 155.549 169.271 156.379 196.684C130.187 198.945 103.823 198.602 77.704 195.659C79.888 171.875 80.5504 138.797 78.3009 112.858L89.5849 67.481L118.829 70.1556L140.079 66.5684L149.922 113.076Z" fill="#B0A9D7"/>
<path d="M94.6234 103.761C111.347 107.766 128.862 107.524 145.46 103.059C147.367 102.547 148.182 105.404 146.275 105.909C133.001 109.458 119.125 110.413 105.463 108.717C101.543 108.226 97.654 107.523 93.8153 106.611C91.8934 106.162 92.7015 103.305 94.6234 103.761Z" fill="#3E369C"/>
<path d="M94.6226 111.272C107.598 114.358 121.082 114.916 134.284 112.915C138.061 112.33 141.802 111.543 145.488 110.556C147.395 110.05 148.211 112.901 146.303 113.413C129.166 117.982 111.098 118.224 93.8364 114.115C91.8926 113.666 92.7007 110.816 94.6226 111.272Z" fill="#3E369C"/>
<path d="M94.6234 118.777C111.347 122.782 128.862 122.54 145.46 118.075C147.367 117.562 148.182 120.42 146.275 120.925C133.002 124.477 119.125 125.432 105.463 123.733C101.543 123.242 97.654 122.539 93.8153 121.627C91.8934 121.192 92.7015 118.321 94.6234 118.777Z" fill="#3E369C"/>
<path d="M142.933 189.285C142.933 189.285 142.62 197.836 143.319 198.531C144.018 199.225 158.607 198.432 159.248 197.583C159.888 196.733 159.488 189.531 159.488 189.531L142.933 189.285Z" fill="#724FFF"/>
<path d="M131.315 68.0496C139.752 117.386 141.07 189.285 142.147 190.513C143.225 191.742 158.12 192.219 159.881 190.513C161.643 188.808 151.8 102.763 148.903 92.6266C146.006 82.4897 140.08 66.5684 140.08 66.5684L131.315 68.0496Z" fill="#724FFF"/>
<path d="M131.314 68.0501C133.083 79.4647 135.42 96.5373 135.42 96.5373C145.838 83.2976 135.151 67.4043 135.151 67.4043L131.314 68.0501Z" fill="#A4D8C8"/>
<path d="M72.4261 189.145L101.335 190.549C101.335 190.549 100.993 198.109 100.061 198.72C99.1291 199.331 74.0495 199.106 72.9648 198.137C71.8801 197.168 72.4261 189.145 72.4261 189.145Z" fill="#724FFF"/>
<path d="M102.704 68.6811C112.168 146.758 104.713 189.853 102.755 191.18C100.796 192.507 72.7755 192.584 71.3049 190.324C69.8344 188.063 76.5902 155.589 77.0561 146.392C77.5221 137.196 77.6749 110.885 77.6749 110.885L88.7915 67.3613L102.704 68.6811Z" fill="#724FFF"/>
<path d="M88.6321 105.087C89.5857 105.668 90.711 105.932 91.8353 105.838C93.0114 105.667 94.1139 105.18 95.0166 104.434C96.6546 103.282 99.1007 102.11 100.841 103.83C101.525 104.532 100.44 105.564 99.7559 104.876C99.0716 104.188 98.0524 104.399 97.2953 104.771C96.2324 105.283 95.3806 106.132 94.3105 106.645C93.297 107.123 92.1745 107.345 91.0478 107.291C89.9211 107.237 88.827 106.908 87.8677 106.336C87.0159 105.859 87.7876 104.581 88.6321 105.087Z" fill="white"/>
<path d="M88.6321 108.647C89.5857 109.229 90.711 109.493 91.8353 109.398C93.0114 109.228 94.1139 108.741 95.0166 107.994C96.6546 106.843 99.1007 105.671 100.841 107.39C101.525 108.092 100.44 109.124 99.7559 108.436C99.0716 107.749 98.0524 107.959 97.2953 108.331C96.2324 108.844 95.3806 109.693 94.3105 110.206C93.297 110.683 92.1745 110.905 91.0478 110.851C89.9211 110.797 88.827 110.469 87.8677 109.897C87.0159 109.419 87.7876 108.142 88.6321 108.647Z" fill="white"/>
<path d="M98.1177 68.2539L102.704 68.6821C103.236 73.9541 105.521 96.5375 105.521 96.5375C105.521 96.5375 92.1117 83.747 98.1177 68.2539Z" fill="#A4D8C8"/>
<path d="M149.128 92.8799C149.179 92.8799 149.227 92.8607 149.262 92.8265C149.298 92.7922 149.318 92.7458 149.318 92.6974C149.506 84.1096 147.185 75.6439 142.62 68.2678C142.607 68.2469 142.59 68.2286 142.57 68.2141C142.55 68.1996 142.527 68.1891 142.503 68.1832C142.478 68.1773 142.453 68.1762 142.428 68.1798C142.403 68.1835 142.379 68.192 142.358 68.2046C142.335 68.2162 142.316 68.2321 142.3 68.2515C142.284 68.2708 142.273 68.2931 142.267 68.3169C142.261 68.3408 142.26 68.3656 142.264 68.3897C142.269 68.4139 142.278 68.437 142.292 68.4573C146.821 75.7737 149.122 84.1718 148.932 92.6904C148.932 92.7395 148.951 92.7866 148.987 92.822C149.022 92.8573 149.07 92.8781 149.121 92.8799H149.128Z" fill="#724FFF"/>
<path d="M78.8909 128.739C78.9322 128.739 78.9723 128.725 79.0052 128.701C79.038 128.677 79.0618 128.644 79.0729 128.605C84.4138 110.6 86.1434 91.7775 84.1689 73.1472C84.1618 73.0988 84.1362 73.0548 84.0971 73.0236C84.0581 72.9925 84.0084 72.9765 83.9578 72.9787C83.9063 72.9857 83.8596 73.0114 83.8271 73.0506C83.7946 73.0897 83.7789 73.1393 83.7831 73.1893C85.7712 91.7701 84.0588 110.546 78.7381 128.507C78.7244 128.554 78.7304 128.605 78.7549 128.648C78.7794 128.692 78.8203 128.724 78.8691 128.739H78.8909Z" fill="#724FFF"/>
<path d="M55.2751 128.912C55.3253 128.912 55.3735 128.893 55.409 128.859C55.4445 128.824 55.4644 128.778 55.4644 128.73C55.445 123.23 55.9126 117.739 56.8622 112.317C56.8747 112.288 56.8794 112.256 56.8757 112.225C56.872 112.194 56.8601 112.165 56.8411 112.139C56.8221 112.114 56.7966 112.094 56.7672 112.08C56.7377 112.067 56.7052 112.062 56.6729 112.064C56.622 112.058 56.5705 112.07 56.5287 112.099C56.4869 112.127 56.4578 112.17 56.4472 112.219C55.4919 117.662 55.0219 123.174 55.0422 128.695C55.0368 128.725 55.0392 128.756 55.0491 128.785C55.059 128.815 55.0762 128.841 55.0991 128.863C55.1221 128.884 55.1501 128.9 55.1808 128.908C55.2114 128.917 55.2438 128.918 55.2751 128.912Z" fill="#724FFF"/>
<path d="M182.005 55.0972H182.048C187.44 53.9482 192.901 53.1229 198.399 52.6262C198.425 52.6244 198.45 52.6177 198.472 52.6064C198.495 52.5951 198.515 52.5795 198.532 52.5605C198.548 52.5414 198.56 52.5194 198.567 52.4957C198.575 52.472 198.577 52.4471 198.574 52.4226C198.567 52.3742 198.541 52.3302 198.502 52.299C198.463 52.2679 198.413 52.2519 198.363 52.2541C192.848 52.7561 187.37 53.586 181.961 54.7392C181.937 54.7442 181.913 54.7538 181.893 54.7675C181.872 54.7811 181.855 54.7986 181.841 54.8188C181.828 54.839 181.818 54.8616 181.814 54.8853C181.81 54.909 181.81 54.9333 181.815 54.9568C181.828 54.9964 181.852 55.0313 181.886 55.0565C181.92 55.0817 181.962 55.096 182.005 55.0972Z" fill="#724FFF"/>
<path d="M188.666 53.7575C188.699 53.7677 188.735 53.7677 188.768 53.7575L193.66 50.8652C193.681 50.8524 193.699 50.8356 193.714 50.8159C193.728 50.7963 193.738 50.774 193.744 50.7505C193.749 50.7271 193.749 50.7028 193.745 50.6791C193.741 50.6554 193.732 50.6328 193.718 50.6125C193.706 50.5908 193.69 50.5718 193.67 50.5567C193.65 50.5416 193.626 50.5307 193.602 50.5248C193.577 50.5188 193.551 50.5179 193.526 50.5222C193.501 50.5264 193.477 50.5356 193.456 50.5493L188.571 53.4416C188.533 53.4608 188.503 53.4919 188.486 53.5297C188.469 53.5676 188.465 53.61 188.476 53.6499C188.487 53.6899 188.512 53.7251 188.546 53.7497C188.581 53.7744 188.623 53.787 188.666 53.7855V53.7575Z" fill="#724FFF"/>
<path d="M52.6029 127.102C52.6442 127.102 52.6843 127.089 52.7171 127.065C52.75 127.041 52.7738 127.007 52.7849 126.969C53.5548 124.497 54.5462 122.094 55.7479 119.787C55.7601 119.766 55.7675 119.742 55.7697 119.718C55.7719 119.694 55.7688 119.669 55.7606 119.646C55.7523 119.623 55.7392 119.602 55.7219 119.584C55.7047 119.566 55.6838 119.551 55.6605 119.542C55.6157 119.521 55.5647 119.518 55.5174 119.532C55.4702 119.546 55.4303 119.577 55.4057 119.619C54.1971 121.957 53.1962 124.39 52.4136 126.892C52.4 126.939 52.406 126.99 52.4305 127.033C52.4549 127.076 52.4959 127.109 52.5447 127.123L52.6029 127.102Z" fill="#724FFF"/>
<path d="M107.487 51.4824L105.98 72.2335C105.98 72.2335 118.262 78.1374 126.364 73.5393L126.08 57.7934L107.487 51.4824Z" fill="#EFAD9C"/>
<path d="M126.299 68.0492C115.503 67.1647 111.739 61.4785 111.739 61.4785L126.233 62.4683L126.299 68.0492Z" fill="#FFE0D9"/>
<path d="M104.08 68.8078L118.829 70.1556L128.329 68.541C128.555 81.8299 108.295 82.1388 104.08 68.8078Z" fill="#EFAD9C"/>
<path d="M106.409 56.6071C102.434 54.6925 99.3157 51.4489 97.637 47.4811C96.0718 43.7044 95.7515 39.7591 95.6205 35.6665C95.1131 35.4305 94.6915 35.0522 94.4109 34.5812C94.1303 34.1102 94.0038 33.5685 94.048 33.0269C94.1556 31.9442 94.4952 30.8948 95.0453 29.9452C94.3834 29.8801 93.762 29.6072 93.2766 29.1683C92.7913 28.7295 92.4689 28.149 92.359 27.5162C92.1709 26.2416 92.427 24.9429 93.087 23.8237C94.5051 21.1538 96.9228 19.1035 99.8502 18.0884C99.8398 15.9983 100.282 13.9292 101.148 12.0133C102.014 10.0974 103.286 8.37685 104.881 6.96168C106.226 5.65964 107.945 4.77683 109.816 4.42746C110.74 4.26172 111.692 4.32485 112.583 4.61094C113.475 4.89703 114.276 5.39671 114.912 6.06312C116.193 4.93128 117.71 4.07778 119.362 3.56037C121.014 3.04296 122.762 2.87371 124.487 3.06407C126.213 3.25443 127.876 3.79996 129.364 4.66374C130.852 5.52753 132.13 6.68944 133.112 8.07084C134.774 7.91194 136.449 8.18842 137.961 8.87112C139.593 9.47327 140.914 10.6712 141.637 12.2056C141.982 12.9721 142.112 13.8123 142.015 14.6425C141.918 15.4727 141.597 16.2638 141.084 16.9371C143.178 18.6659 144.504 21.103 144.79 23.7465C144.894 25.0092 144.739 26.2795 144.333 27.4843C143.927 28.689 143.278 29.8045 142.424 30.7665C141.579 35.045 140.109 39.1861 138.056 43.0655C132.974 53.0971 117.89 55.2593 106.409 56.6071Z" fill="#162A45"/>
<path d="M129.268 16.8954C109.168 14.4946 98.6194 23.8171 100.323 41.9147C101.677 56.3268 110.355 65.2913 124.478 65.3334C137.495 65.3755 139.606 55.1334 139.766 44.3928C140.035 29.0751 141.2 18.3205 129.268 16.8954Z" fill="#EFAD9C"/>
<path d="M139.904 25.276C139.827 25.5245 139.687 25.751 139.498 25.9357C139.309 26.1204 139.076 26.2578 138.82 26.336C138.302 26.4795 137.762 26.5295 137.225 26.4834C133.714 26.3012 130.329 25.1619 127.463 23.1981C127.672 23.6173 127.714 24.0964 127.58 24.5433C127.445 24.9903 127.144 25.3737 126.735 25.62C125.884 26.0735 124.917 26.283 123.947 26.2237C120.855 26.2772 117.773 25.8699 114.81 25.0162C115.313 26.0201 114.57 27.2767 113.522 27.754C112.431 28.1497 111.245 28.2326 110.107 27.9927C110.611 29.8995 110.437 31.9141 109.612 33.714C108.843 35.5074 107.461 36.9935 105.696 37.926C105.959 38.8844 106.024 39.8837 105.884 40.8661C105.745 41.8486 105.406 42.7947 104.885 43.6498C104.365 44.5049 103.673 45.252 102.852 45.848C102.03 46.4441 101.094 46.8771 100.097 47.1222C99.5222 41.9976 98.9908 36.8379 100.134 31.8046C101.277 26.7712 103.941 21.9064 108.251 18.8667C112.058 16.1851 116.856 15.104 121.566 14.8864C125.512 14.6968 129.574 15.104 133.112 16.8239C136.65 18.5438 140.814 21.5694 139.904 25.276Z" fill="#162A45"/>
<path d="M138.9 38.0387C138.9 38.0387 134.299 35.9327 131.162 35.6028C133.433 33.8829 137.437 36.1222 138.9 38.0387Z" fill="#162A45"/>
<path d="M115.378 38.1729C115.378 38.1729 119.892 35.8844 123.015 35.4632C120.678 33.8205 116.768 36.2003 115.378 38.1729Z" fill="#162A45"/>
<path d="M132.72 44.1395C132.778 44.4076 132.913 44.6543 133.111 44.851C133.309 45.0477 133.56 45.1862 133.836 45.2504C134.112 45.3146 134.402 45.3019 134.671 45.2137C134.939 45.1255 135.177 44.9656 135.355 44.7524C135.533 44.5392 135.645 44.2815 135.678 44.0094C135.71 43.7374 135.662 43.462 135.538 43.2154C135.415 42.9688 135.221 42.7611 134.98 42.6165C134.738 42.4719 134.46 42.3963 134.176 42.3985C133.745 42.4479 133.352 42.6577 133.08 42.9831C132.808 43.3084 132.679 43.7234 132.72 44.1395Z" fill="#162A45"/>
<path d="M134.19 43.4999C134.209 43.5841 134.253 43.6612 134.315 43.7225C134.378 43.7838 134.458 43.8266 134.545 43.8461C134.632 43.8656 134.723 43.8609 134.807 43.8326C134.892 43.8043 134.966 43.7535 135.022 43.6861C135.078 43.6187 135.112 43.5375 135.122 43.4519C135.132 43.3662 135.117 43.2796 135.078 43.2021C135.038 43.1246 134.977 43.0594 134.901 43.0139C134.826 42.9685 134.738 42.9447 134.648 42.9453C134.512 42.9612 134.387 43.0282 134.301 43.132C134.216 43.2358 134.175 43.3679 134.19 43.4999Z" fill="white"/>
<path d="M118.552 44.1394C118.612 44.4052 118.748 44.6494 118.945 44.8437C119.142 45.0381 119.392 45.1746 119.666 45.2375C119.94 45.3005 120.227 45.2872 120.494 45.1993C120.761 45.1115 120.996 44.9525 121.173 44.7409C121.35 44.5294 121.461 44.2738 121.494 44.0038C121.527 43.7338 121.479 43.4604 121.357 43.2153C121.235 42.9702 121.044 42.7634 120.805 42.6188C120.567 42.4743 120.29 42.3979 120.008 42.3984C119.578 42.4479 119.185 42.6577 118.913 42.983C118.641 43.3083 118.511 43.7234 118.552 44.1394Z" fill="#162A45"/>
<path d="M120.008 43.4999C120.027 43.5841 120.071 43.6612 120.134 43.7225C120.197 43.7838 120.276 43.8266 120.363 43.8461C120.45 43.8656 120.541 43.8609 120.626 43.8326C120.71 43.8043 120.784 43.7535 120.84 43.6861C120.896 43.6187 120.931 43.5375 120.94 43.4519C120.95 43.3662 120.935 43.2796 120.896 43.2021C120.857 43.1246 120.796 43.0594 120.72 43.0139C120.644 42.9685 120.556 42.9447 120.467 42.9453C120.33 42.9612 120.205 43.0282 120.12 43.132C120.034 43.2358 119.994 43.3679 120.008 43.4999Z" fill="white"/>
<path d="M128.643 50.5411H128.744C129.096 50.5086 129.435 50.4026 129.74 50.2304C130.044 50.0582 130.305 49.8241 130.506 49.5443C130.624 49.3293 130.69 49.0912 130.699 48.8479C130.708 48.6047 130.659 48.3628 130.557 48.1403C130.351 47.6714 130.108 47.2184 129.829 46.7854C129.554 46.3874 129.31 45.9697 129.101 45.5359C129.057 45.4256 128.97 45.3364 128.858 45.2878C128.746 45.2392 128.619 45.235 128.504 45.2761C128.447 45.2964 128.395 45.3275 128.35 45.3675C128.305 45.4076 128.269 45.4558 128.244 45.5094C128.219 45.563 128.205 45.6209 128.204 45.6797C128.202 45.7385 128.213 45.797 128.235 45.8518C128.452 46.3408 128.712 46.8106 129.014 47.2558C129.267 47.6445 129.496 48.0477 129.698 48.4632C129.749 48.565 129.776 48.6766 129.776 48.7897C129.776 48.9027 129.749 49.0143 129.698 49.1161C129.561 49.2784 129.391 49.412 129.198 49.5085C129.005 49.6051 128.794 49.6627 128.577 49.6777C128.469 49.7033 128.374 49.7653 128.31 49.8525C128.245 49.9396 128.215 50.0462 128.224 50.153C128.234 50.2598 128.283 50.3597 128.362 50.4348C128.442 50.5098 128.546 50.555 128.657 50.5622L128.643 50.5411Z" fill="#FFE0D9"/>
<path d="M122.782 53.533C124.692 52.95 126.731 52.8796 128.679 53.3295C128.738 53.3425 128.795 53.3671 128.844 53.4016C128.893 53.4362 128.935 53.4801 128.966 53.5306C128.998 53.5812 129.018 53.6373 129.026 53.6956C129.034 53.7539 129.03 53.8133 129.014 53.87C129.002 53.9314 128.977 53.9897 128.941 54.0414C128.905 54.0931 128.858 54.1372 128.803 54.1707C128.748 54.2043 128.687 54.2267 128.623 54.2365C128.559 54.2464 128.494 54.2435 128.431 54.228C126.651 53.8154 124.787 53.8834 123.044 54.4246C122.993 54.4314 122.942 54.4314 122.891 54.4246C122.788 54.425 122.689 54.3873 122.615 54.3193C122.55 54.26 122.501 54.1856 122.475 54.1033C122.448 54.021 122.444 53.9334 122.462 53.8489C122.483 53.7744 122.524 53.7064 122.58 53.6511C122.636 53.5958 122.705 53.5552 122.782 53.533Z" fill="#FFCEC4"/>
<path d="M103.665 44.5955C104.851 47.4386 104 50.2115 101.867 51.0048C99.7336 51.798 97.04 50.2115 95.8461 47.3754C94.6521 44.5393 95.4165 41.5558 97.5496 40.7275C99.6826 39.8991 102.471 41.7594 103.665 44.5955Z" fill="#EFAD9C"/>
<path d="M101.605 48.2599C101.714 48.2594 101.819 48.2221 101.903 48.1543C101.986 48.0866 102.042 47.9927 102.061 47.8891C102.081 47.7855 102.061 47.6787 102.007 47.5874C101.953 47.4961 101.867 47.426 101.765 47.3894C101.498 47.308 101.26 47.1565 101.077 46.9519C100.895 46.7473 100.775 46.4977 100.731 46.2311C100.743 45.9886 100.802 45.7504 100.906 45.5291C101.031 45.2577 101.11 44.9685 101.139 44.6727C101.156 44.3699 101.108 44.0669 100.998 43.783C100.888 43.499 100.717 43.2402 100.498 43.023C100.251 42.7631 99.9428 42.5639 99.5997 42.4419C99.2566 42.3198 98.8882 42.2783 98.5252 42.321C98.0198 42.43 97.571 42.7087 97.2589 43.1073C96.9469 43.506 96.7919 43.9985 96.8217 44.4972C96.8217 44.6163 96.8708 44.7306 96.9582 44.8148C97.0455 44.8991 97.164 44.9464 97.2876 44.9464C97.4112 44.9464 97.5297 44.8991 97.6171 44.8148C97.7044 44.7306 97.7535 44.6163 97.7535 44.4972C97.7309 44.2133 97.8096 43.9305 97.9764 43.6956C98.1432 43.4607 98.3882 43.2878 98.6708 43.2055C98.8879 43.1956 99.1046 43.2327 99.3049 43.3141C99.5052 43.3955 99.684 43.5191 99.8283 43.6758C99.9579 43.8061 100.059 43.9604 100.125 44.1292C100.192 44.2981 100.222 44.4782 100.214 44.6586C100.187 44.8603 100.128 45.0567 100.039 45.2413C99.886 45.5751 99.8066 45.9362 99.8065 46.3013C99.8545 46.7464 100.036 47.1684 100.328 47.5161C100.62 47.8638 101.01 48.1222 101.452 48.2599C101.502 48.2699 101.554 48.2699 101.605 48.2599Z" fill="#FFE0D9"/>
</svg>
