<svg width="187" height="17" viewBox="0 0 187 17" fill="none" xmlns="http://www.w3.org/2000/svg">
<path fill-rule="evenodd" clip-rule="evenodd" d="M75.0865 9.23542C99.9728 8.93348 124.872 7.73569 149.649 5.59468C161.43 4.57657 175.11 4.70384 186.535 1.2328C187.105 1.05812 186.996 0.534096 186.984 0.481693C186.959 0.374393 186.856 0.0175743 186.402 0.000106759C186.353 -0.00238806 186.006 0.0475215 185.872 0.064989C182.499 0.514152 179.137 1.03814 175.761 1.46235C164.104 2.93212 152.412 4.04255 140.703 5.01574C125.162 6.30833 109.488 6.99707 93.9053 7.53607C85.3757 7.83052 76.6415 7.43876 68.0848 8.04762C64.9426 8.06509 61.8004 8.06753 58.6582 8.05755C45.5225 8.01014 32.4016 7.50608 19.288 6.81487C15.0713 6.59278 11.8552 6.35323 7.72714 6.19103C6.15973 6.12864 3.67308 6.08621 1.94301 6.05877C1.68916 6.05377 1.041 6.04883 0.772386 6.04634C0.745271 6.04135 0.718141 6.04134 0.688569 6.04134C0.585053 6.04134 0.535783 6.04883 0.525926 6.04883C-0.0606222 6.13617 -0.00642305 6.69761 0.00836271 6.78246C0.0108346 6.79992 0.0995339 7.27405 0.604752 7.29152C0.72551 7.29651 1.59056 7.30145 1.92328 7.30644C3.64348 7.33389 6.12026 7.37632 7.68028 7.43621C11.8009 7.59841 15.0146 7.83796 19.224 8.06005C32.3572 8.75126 45.4978 9.25782 58.6533 9.30523C60.2601 9.31022 61.8694 9.31272 63.4763 9.31023C63.5305 9.45246 63.6512 9.61216 63.9174 9.68203C64.1663 9.74691 65.9481 9.8043 66.6357 9.86169C71.7249 10.2859 71.5746 10.2659 77.1739 10.6128C85.6542 11.1393 86.9456 11.2592 95.766 11.4812C111.788 11.8855 127.817 11.853 143.841 11.8131C151.752 11.7906 160.222 11.2491 168.254 12.2598C165.607 12.5742 162.95 12.8037 160.299 13.0658C151.244 13.9591 142.182 14.5131 133.091 14.9024C111.282 15.8356 89.4396 16.2074 67.6388 14.9348C72.2794 14.8899 76.9176 14.7851 81.5582 14.7177C100.448 14.4382 119.521 14.6478 138.372 13.198C138.71 13.1706 138.963 12.8711 138.939 12.5293C138.914 12.1849 138.616 11.9279 138.278 11.9528C119.452 13.4026 100.407 13.1906 81.5409 13.47C74.5319 13.5723 67.5254 13.757 60.5164 13.7021C58.1111 13.6821 55.7057 13.5923 53.3004 13.5623C52.8248 13.5548 51.5999 13.46 51.4249 13.4999C51.038 13.5873 50.9542 13.8768 50.9296 14.019C50.9173 14.1038 50.8778 14.5929 51.4693 14.7676C55.5061 15.9604 62.9562 15.9055 66.8797 16.1401C88.9492 17.4626 111.063 17.0933 133.142 16.15C142.256 15.7583 151.34 15.2018 160.419 14.3059C163.591 13.994 166.77 13.7245 169.93 13.3103C170.44 13.2429 171.586 13.1456 172.14 13.0433C172.372 13.0009 172.54 12.941 172.614 12.8986C172.902 12.7339 172.954 12.4943 172.954 12.3321C172.956 12.2074 172.904 11.7682 172.301 11.6484C163.101 9.82431 153.09 10.5405 143.838 10.5654C127.824 10.6053 111.807 10.6378 95.7955 10.2336C86.9973 10.0115 85.7109 9.89414 77.2478 9.36762C76.4124 9.31771 75.705 9.27285 75.0865 9.23542Z" fill="#724FFF"/>
</svg>
