<svg width="1280" height="261" viewBox="0 0 1280 261" fill="none" xmlns="http://www.w3.org/2000/svg">
<path opacity="0.8" fill-rule="evenodd" clip-rule="evenodd" d="M-19 0L24.3761 33.9696C67.7522 67.9393 154.504 135.312 240.496 164.187C327.248 193.627 414 183.436 500.752 164.187C587.504 144.937 673.496 116.063 760.248 130.783C847 144.937 933.752 203.252 1020.5 198.156C1106.5 193.627 1193.25 125.688 1236.62 91.718L1280 58.3145V261H1236.62C1193.25 261 1106.5 261 1020.5 261C933.752 261 847 261 760.248 261C673.496 261 587.504 261 500.752 261C414 261 327.248 261 240.496 261C154.504 261 67.7522 261 24.3761 261H-19V0Z" fill="#7579FF"/>
</svg>
