<svg width="1280" height="152" viewBox="0 0 1280 152" fill="none" xmlns="http://www.w3.org/2000/svg">
<path opacity="0.8" fill-rule="evenodd" clip-rule="evenodd" d="M-19 80.9793L35.0299 65.2995C89.0598 49.6197 197.88 18.26 305.94 6.26951C414 -5.25978 522.06 2.58014 630.88 21.9494C738.94 41.7797 847 73.1394 955.06 73.1394C1063.88 73.1394 1171.94 41.7797 1225.97 26.0999L1280 10.4201V152H1225.97C1171.94 152 1063.88 152 955.06 152C847 152 738.94 152 630.88 152C522.06 152 414 152 305.94 152C197.88 152 89.0598 152 35.0299 152H-19V80.9793Z" fill="#7579FF"/>
</svg>
