<svg width="1280" height="108" viewBox="0 0 1280 108" fill="none" xmlns="http://www.w3.org/2000/svg">
<path opacity="0.8" fill-rule="evenodd" clip-rule="evenodd" d="M-19 24.6906L35.0299 36.5586C89.0598 48.4267 197.88 72.1629 305.94 66.3452C414 60.2948 522.06 24.6906 630.88 18.6402C738.94 12.5898 847 36.5586 955.06 38.4203C1063.88 40.5147 1171.94 20.7345 1225.97 10.7281L1280 0.72168V108H1225.97C1171.94 108 1063.88 108 955.06 108C847 108 738.94 108 630.88 108C522.06 108 414 108 305.94 108C197.88 108 89.0598 108 35.0299 108H-19V24.6906Z" fill="#7579FF"/>
</svg>
