<svg width="407" height="185" viewBox="0 0 407 185" fill="none" xmlns="http://www.w3.org/2000/svg">
<path d="M383.986 1.05376e-06H172.43C171.097 -0.000762729 169.796 0.413692 168.709 1.1858C167.622 1.95791 166.803 3.04936 166.364 4.30855C165.471 6.88628 163.797 9.12165 161.575 10.7037C159.353 12.2858 156.692 13.136 153.964 13.136C151.236 13.136 148.576 12.2858 146.354 10.7037C144.131 9.12165 142.457 6.88628 141.564 4.30855C141.126 3.0541 140.31 1.96622 139.228 1.19463C138.147 0.423052 136.852 0.00569379 135.524 1.05376e-06H22.6608C22.6608 2.97567 22.0747 5.92218 20.9358 8.67129C19.7969 11.4204 18.1277 13.9182 16.0234 16.0222C13.9191 18.1261 11.4209 19.7949 8.67161 20.9332C5.9223 22.0716 2.97567 22.6572 0 22.6566V161.665C2.97567 161.664 5.9223 162.25 8.67161 163.388C11.4209 164.527 13.9191 166.196 16.0234 168.299C18.1277 170.403 19.7969 172.901 20.9358 175.65C22.0747 178.399 22.6608 181.346 22.6608 184.322H135.524C136.857 184.323 138.158 183.909 139.245 183.137C140.332 182.364 141.152 181.273 141.589 180.013C142.482 177.435 144.156 175.2 146.379 173.618C148.601 172.036 151.261 171.186 153.989 171.186C156.718 171.186 159.378 172.036 161.6 173.618C163.823 175.2 165.497 177.435 166.39 180.013C166.827 181.268 167.643 182.356 168.725 183.128C169.807 183.899 171.101 184.317 172.43 184.322H383.973C383.973 181.346 384.559 178.4 385.698 175.651C386.837 172.902 388.505 170.405 390.609 168.301C392.713 166.197 395.211 164.528 397.96 163.39C400.708 162.251 403.655 161.665 406.63 161.665V22.6566C400.623 22.6533 394.864 20.2648 390.617 16.0162C386.371 11.7676 383.986 6.00673 383.986 1.05376e-06ZM152.888 19.7058C152.879 19.5563 152.9 19.4065 152.951 19.2656C153.002 19.1247 153.081 18.9957 153.184 18.8865C153.286 18.7774 153.41 18.6904 153.548 18.631C153.685 18.5715 153.833 18.5408 153.983 18.5408C154.133 18.5408 154.281 18.5715 154.419 18.631C154.556 18.6904 154.68 18.7774 154.783 18.8865C154.885 18.9957 154.964 19.1247 155.015 19.2656C155.066 19.4065 155.087 19.5563 155.078 19.7058V32.4045C155.087 32.554 155.066 32.7038 155.015 32.8447C154.964 32.9856 154.885 33.1146 154.783 33.2237C154.68 33.3329 154.556 33.4198 154.419 33.4793C154.281 33.5388 154.133 33.5694 153.983 33.5694C153.833 33.5694 153.685 33.5388 153.548 33.4793C153.41 33.4198 153.286 33.3329 153.184 33.2237C153.081 33.1146 153.002 32.9856 152.951 32.8447C152.9 32.7038 152.879 32.554 152.888 32.4045V19.7058ZM152.888 41.4545C152.879 41.305 152.9 41.1552 152.951 41.0143C153.002 40.8734 153.081 40.7444 153.184 40.6352C153.286 40.5261 153.41 40.4391 153.548 40.3797C153.685 40.3202 153.833 40.2895 153.983 40.2895C154.133 40.2895 154.281 40.3202 154.419 40.3797C154.556 40.4391 154.68 40.5261 154.783 40.6352C154.885 40.7444 154.964 40.8734 155.015 41.0143C155.066 41.1552 155.087 41.305 155.078 41.4545V54.1531C155.078 54.3695 155.014 54.581 154.894 54.761C154.774 54.941 154.604 55.0812 154.404 55.1641C154.204 55.2469 153.984 55.2685 153.772 55.2263C153.56 55.184 153.365 55.0797 153.212 54.9266C153.109 54.8259 153.027 54.7055 152.972 54.5727C152.916 54.4398 152.888 54.2972 152.888 54.1531V41.4545ZM152.888 63.2032C152.879 63.0537 152.9 62.9039 152.951 62.763C153.002 62.6221 153.081 62.4931 153.184 62.3839C153.286 62.2748 153.41 62.1878 153.548 62.1283C153.685 62.0689 153.833 62.0382 153.983 62.0382C154.133 62.0382 154.281 62.0689 154.419 62.1283C154.556 62.1878 154.68 62.2748 154.783 62.3839C154.885 62.4931 154.964 62.6221 155.015 62.763C155.066 62.9039 155.087 63.0537 155.078 63.2032V75.9018C155.078 76.1182 155.014 76.3297 154.894 76.5097C154.774 76.6897 154.604 76.8299 154.404 76.9128C154.204 76.9956 153.984 77.0172 153.772 76.975C153.56 76.9327 153.365 76.8284 153.212 76.6753C153.109 76.5746 153.027 76.4542 152.972 76.3214C152.916 76.1885 152.888 76.0459 152.888 75.9018V63.2032ZM152.888 84.9519C152.888 84.6609 153.004 84.3819 153.21 84.1761C153.415 83.9704 153.694 83.8548 153.985 83.8548C154.129 83.8542 154.272 83.8826 154.405 83.9382C154.538 83.9938 154.658 84.0755 154.759 84.1784C154.86 84.2799 154.941 84.4005 154.996 84.5332C155.051 84.666 155.079 84.8083 155.078 84.9519V97.6505C155.077 97.94 154.962 98.2174 154.757 98.4221C154.552 98.6268 154.275 98.7423 153.985 98.7434C153.696 98.7413 153.419 98.6255 153.213 98.4212C153.008 98.2168 152.891 97.9401 152.888 97.6505V84.9519ZM152.888 106.701C152.879 106.551 152.9 106.401 152.951 106.26C153.002 106.119 153.081 105.99 153.184 105.881C153.286 105.772 153.41 105.685 153.548 105.626C153.685 105.566 153.833 105.536 153.983 105.536C154.133 105.536 154.281 105.566 154.419 105.626C154.556 105.685 154.68 105.772 154.783 105.881C154.885 105.99 154.964 106.119 155.015 106.26C155.066 106.401 155.087 106.551 155.078 106.701V119.399C155.078 119.616 155.014 119.827 154.894 120.007C154.774 120.187 154.604 120.327 154.404 120.41C154.204 120.493 153.984 120.515 153.772 120.472C153.56 120.43 153.365 120.326 153.212 120.173C153.109 120.072 153.027 119.952 152.972 119.819C152.916 119.686 152.888 119.543 152.888 119.399V106.701ZM155.078 162.892C155.078 163.183 154.963 163.461 154.758 163.667C154.553 163.872 154.276 163.988 153.985 163.99C153.695 163.987 153.417 163.871 153.212 163.666C153.007 163.46 152.89 163.183 152.888 162.892V150.194C152.879 150.044 152.9 149.894 152.951 149.754C153.002 149.613 153.081 149.484 153.184 149.374C153.286 149.265 153.41 149.178 153.548 149.119C153.685 149.059 153.833 149.029 153.983 149.029C154.133 149.029 154.281 149.059 154.419 149.119C154.556 149.178 154.68 149.265 154.783 149.374C154.885 149.484 154.964 149.613 155.015 149.754C155.066 149.894 155.087 150.044 155.078 150.194V162.892ZM155.078 141.148C155.078 141.364 155.014 141.576 154.894 141.756C154.774 141.936 154.604 142.076 154.404 142.159C154.204 142.242 153.984 142.263 153.772 142.221C153.56 142.179 153.365 142.074 153.212 141.921L153.178 141.888C152.992 141.686 152.889 141.422 152.888 141.148V128.449C152.888 128.233 152.952 128.021 153.073 127.841C153.193 127.66 153.364 127.52 153.564 127.437C153.764 127.354 153.984 127.331 154.197 127.373C154.41 127.415 154.605 127.519 154.759 127.672C154.949 127.862 155.062 128.117 155.074 128.386C155.076 128.407 155.076 128.428 155.074 128.449L155.078 141.148Z" fill="url(#paint0_linear_676_5863)"/>
<defs>
<linearGradient id="paint0_linear_676_5863" x1="270.413" y1="-25.2754" x2="-456.147" y2="185.133" gradientUnits="userSpaceOnUse">
<stop stop-color="#695EE3"/>
<stop offset="1" stop-color="#CECECE"/>
</linearGradient>
</defs>
</svg>
