<svg width="307" height="311" viewBox="0 0 307 311" fill="none" xmlns="http://www.w3.org/2000/svg">
<g clip-path="url(#clip0_186_4627)">
<path d="M215.305 61.7839C214.895 59.0533 212.718 56.4658 209.757 56.5591C206.46 56.6648 204.706 59.6691 203.63 62.3623C202.797 64.4523 205.888 66.1939 206.74 64.0853C207.157 63.0279 207.611 61.448 208.563 60.7327C210.323 59.4203 211.853 61.0313 211.872 62.947C211.872 65.3044 210.373 67.5498 208.457 68.8C205.142 70.9584 201.422 70.9086 199.127 74.5287C197.883 76.4569 200.993 78.1674 202.237 76.2516C204.333 72.955 209.57 73.0545 212.332 70.212C214.403 68.0474 215.766 64.8255 215.305 61.7839Z" fill="white"/>
<path d="M197.093 79.3739C194.879 78.8327 194.039 82.2786 196.253 82.8197C198.467 83.3609 199.313 79.915 197.093 79.3739Z" fill="white"/>
<path d="M93.8098 101.933C91.6826 101.523 89.1572 102.742 87.8946 104.465C86.3769 106.536 87.2726 108.664 88.7716 110.449C89.9223 111.811 92.2424 110.243 91.0854 108.863C89.7419 107.27 89.9099 105.199 92.261 104.751C95.6074 104.129 94.8548 108.247 94.4318 110.026C93.7663 112.8 93.2624 115.53 95.1595 117.944C96.2667 119.349 98.5805 117.776 97.4672 116.358C95.3026 113.608 97.859 109.945 97.6538 106.841C97.4983 104.596 96.1299 102.381 93.8098 101.933Z" fill="white"/>
<path d="M98.0456 119.164C96.3413 119.755 97.2494 122.405 98.9599 121.814C100.67 121.223 99.7499 118.579 98.0456 119.164Z" fill="white"/>
<path d="M217.744 113.236C216.5 109.753 210.473 109.548 210.871 113.914C210.976 115.108 212.849 115.04 212.737 113.833C212.525 111.488 215.542 112.459 216.021 113.989C216.537 115.625 215.337 116.769 213.937 117.273C212.202 117.895 210.423 118.106 209.216 119.655C208.482 120.601 209.838 121.894 210.584 120.943C211.99 119.127 214.696 119.469 216.419 118.05C217.107 117.481 217.603 116.713 217.84 115.852C218.077 114.991 218.043 114.078 217.744 113.236Z" fill="white"/>
<path d="M208.755 121.832C208.519 121.791 208.276 121.843 208.076 121.977C207.876 122.11 207.735 122.315 207.682 122.549C207.629 122.783 207.667 123.029 207.789 123.235C207.911 123.442 208.108 123.594 208.339 123.66C208.575 123.701 208.818 123.649 209.018 123.515C209.218 123.382 209.359 123.177 209.412 122.943C209.465 122.709 209.427 122.463 209.305 122.257C209.183 122.05 208.986 121.898 208.755 121.832Z" fill="white"/>
<path d="M113.552 63.2337C113.378 62.5558 113.022 61.9386 112.522 61.4494C112.022 60.9602 111.397 60.6178 110.715 60.4596C110.042 60.3147 109.339 60.4064 108.725 60.719C108.111 61.0317 107.623 61.5463 107.344 62.1763C106.573 63.8806 107.201 65.6097 107.935 67.202C108.055 67.4074 108.251 67.5569 108.481 67.6175C108.711 67.6782 108.955 67.6451 109.16 67.5255C109.366 67.4059 109.515 67.2096 109.576 66.9798C109.637 66.75 109.603 66.5055 109.484 66.3001C108.992 65.2365 108.308 63.7064 109.142 62.6241C109.863 61.6911 111.163 62.3629 111.63 63.2026C112.32 64.4839 111.866 66.0638 111.437 67.3451C110.908 68.9436 110.274 70.5546 110.467 72.2713C110.474 72.5064 110.571 72.7298 110.738 72.8961C110.904 73.0624 111.127 73.1592 111.362 73.167C111.599 73.1654 111.826 73.0705 111.994 72.9029C112.161 72.7353 112.256 72.5084 112.258 72.2713C112.078 70.6852 112.706 69.2235 113.191 67.7432C113.765 66.3112 113.891 64.7387 113.552 63.2337Z" fill="white"/>
<path d="M111.779 74.9141C111.542 74.9141 111.314 75.0084 111.146 75.1764C110.978 75.3444 110.884 75.5722 110.884 75.8097C110.884 76.0473 110.978 76.2751 111.146 76.4431C111.314 76.6111 111.542 76.7054 111.779 76.7054C112.017 76.7054 112.245 76.6111 112.413 76.4431C112.581 76.2751 112.675 76.0473 112.675 75.8097C112.675 75.5722 112.581 75.3444 112.413 75.1764C112.245 75.0084 112.017 74.9141 111.779 74.9141Z" fill="white"/>
<path d="M183.49 116.601C182.246 115.201 180.884 113.895 179.758 112.408C178.562 110.887 177.713 109.123 177.27 107.24C176.362 103.408 176.766 99.4148 176.225 95.5335C175.754 92.2366 174.541 89.0892 172.679 86.3279C170.894 83.6118 168.548 81.3087 165.8 79.573C163.051 77.8373 159.964 76.7091 156.744 76.264C153.456 75.8936 150.127 76.2261 146.978 77.2394C143.828 78.2528 140.93 79.9238 138.476 82.1419C138.053 82.5213 137.673 82.938 137.288 83.3485C137.177 83.4018 137.089 83.492 137.039 83.6036C136.634 84.0514 136.249 84.5117 135.876 84.9906C134.526 84.2927 133.001 84.0072 131.491 84.1696C127.945 84.6299 124.537 87.2796 122.54 90.4331C119.486 95.2661 119.386 101.772 121.128 107.159C122.049 110.014 123.616 112.8 123.697 115.898C123.765 118.871 122.198 121.378 120.388 123.449C117.097 127.231 111.96 130.782 112.177 136.666C112.408 142.998 117.962 146.581 122.789 148.609C125.582 149.781 128.506 150.616 131.497 151.097C134.283 151.545 137.275 151.905 140.043 151.153C145.249 149.728 147.308 143.919 148.577 138.843C148.913 137.5 149.199 136.138 149.423 134.769C152.11 141.804 155.021 148.957 160.364 154.437C162.746 156.999 165.676 158.989 168.935 160.259C171.703 161.248 175.012 161.503 177.718 160.184C180.79 158.667 181.866 155.32 181.45 152.098C180.946 148.366 178.856 145.144 177.923 141.524C177.469 139.758 177.27 137.83 177.923 136.088C178.545 134.533 179.789 133.451 181.157 132.53C183.608 130.844 186.531 129.277 187.147 126.08C187.844 122.535 185.741 119.163 183.49 116.601Z" fill="#162A45"/>
<path d="M142.979 273.196L119.661 518.886C119.519 520.47 118.769 521.938 117.569 522.981C116.368 524.024 114.811 524.562 113.222 524.482C111.634 524.401 110.138 523.709 109.049 522.549C107.961 521.39 107.363 519.854 107.382 518.264L108.147 271.46C108.111 269.141 108.538 266.837 109.402 264.684C110.266 262.53 111.551 260.571 113.182 258.92C114.812 257.269 116.755 255.96 118.897 255.068C121.039 254.177 123.337 253.722 125.658 253.729C127.978 253.736 130.273 254.205 132.41 255.109C134.547 256.014 136.482 257.335 138.102 258.996C139.722 260.656 140.995 262.623 141.847 264.782C142.698 266.94 143.11 269.247 143.06 271.566C143.06 272.126 143.06 272.68 142.979 273.196Z" fill="#FFC6B7"/>
<path d="M180.523 270.695L196.769 518.475C196.877 520.057 196.37 521.619 195.353 522.836C194.337 524.054 192.89 524.831 191.314 525.007C189.738 525.183 188.155 524.743 186.895 523.78C185.636 522.816 184.797 521.404 184.553 519.837L145.865 274.557C145.144 269.981 146.271 265.305 148.997 261.559C151.724 257.812 155.827 255.303 160.404 254.582C164.981 253.861 169.657 254.988 173.403 257.715C177.149 260.441 179.659 264.544 180.38 269.121C180.429 269.637 180.485 270.185 180.523 270.695Z" fill="#FFC6B7"/>
<path d="M167.193 230.726L173.028 241.511C182.364 258.781 187.67 277.941 188.547 297.553L196.881 484.017H175.64L135.733 225.688L167.193 230.726Z" fill="#7B85E8"/>
<path d="M151.277 288.297L140.958 287.24L140.354 268.48H151.277V288.297Z" fill="#7B85E8"/>
<path d="M119.349 230.681L112.706 250.249C108.154 263.661 105.783 277.716 105.684 291.879L104.346 484.015H126.172L146.288 264.032L137.511 221.432L119.349 230.681Z" fill="#7B85E8"/>
<path d="M143.06 287.495H142.985C140.211 286.676 137.659 285.238 135.521 283.29C135.47 283.245 135.439 283.181 135.435 283.113C135.431 283.045 135.454 282.978 135.499 282.927C135.545 282.875 135.609 282.844 135.677 282.84C135.745 282.836 135.812 282.859 135.863 282.905C137.942 284.794 140.418 286.193 143.109 286.998C143.175 287.016 143.231 287.06 143.264 287.119C143.298 287.179 143.307 287.249 143.29 287.315C143.273 287.364 143.242 287.407 143.202 287.439C143.161 287.471 143.111 287.491 143.06 287.495Z" fill="#4D52A8"/>
<path d="M92.0118 220.151L74.4777 164.967C74.0718 163.732 74.1546 162.389 74.7091 161.213C75.2635 160.037 76.2474 159.119 77.4584 158.646C78.6694 158.174 80.0154 158.183 81.2195 158.673C82.4237 159.163 83.3944 160.095 83.9321 161.279L108.383 213.763C109.373 215.88 109.481 218.303 108.684 220.499C107.888 222.696 106.251 224.486 104.135 225.475C102.018 226.465 99.5951 226.574 97.3987 225.777C95.2022 224.98 93.4122 223.344 92.4224 221.227C92.2649 220.877 92.1278 220.517 92.0118 220.151Z" fill="#FFC6B7"/>
<path d="M102.007 226.315C100.571 226.311 99.1568 225.956 97.8891 225.28C96.6213 224.604 95.5383 223.628 94.7346 222.437C93.9309 221.247 93.4309 219.877 93.2783 218.449C93.1257 217.02 93.3252 215.576 93.8592 214.242L119.921 149.498C120.843 147.412 122.539 145.767 124.652 144.908C126.764 144.05 129.128 144.046 131.243 144.898C133.358 145.75 135.059 147.39 135.988 149.473C136.916 151.556 136.998 153.918 136.217 156.06L110.162 220.81C109.507 222.437 108.38 223.83 106.927 224.811C105.474 225.792 103.761 226.316 102.007 226.315Z" fill="#FFC6B7"/>
<path d="M82.8875 157.031C82.8875 157.031 83.0056 139.192 81.5004 138.234C79.9952 137.276 77.277 149.318 77.277 149.318C77.277 149.318 51.0037 140.199 50.0832 141.674C49.1626 143.148 60.4208 147.67 60.4208 147.67C60.4208 147.67 47.0043 144.398 46.345 146.04C45.723 147.533 59.407 151.775 59.407 151.775C59.407 151.775 44.877 149.909 45.2067 151.383C45.5364 152.857 58.4677 155.582 58.4677 155.582C58.4677 155.582 46.5129 155.582 46.8177 156.533C47.1225 157.485 58.9529 159.811 58.9529 159.811C64.8308 160.993 66.9332 162.71 72.7862 165.409C83.2918 170.254 84.9649 166.162 82.8875 157.031Z" fill="#FFC6B7"/>
<path d="M184.672 212.202L209.309 164.209C209.896 163.059 210.898 162.175 212.112 161.736C213.326 161.298 214.662 161.337 215.848 161.846C217.034 162.356 217.983 163.297 218.501 164.479C219.019 165.662 219.069 166.997 218.639 168.214L200.819 219.131C200.47 220.262 199.898 221.311 199.135 222.216C198.372 223.121 197.435 223.862 196.379 224.397C195.323 224.931 194.171 225.247 192.99 225.326C191.809 225.405 190.625 225.246 189.507 224.857C188.39 224.468 187.362 223.858 186.485 223.063C185.609 222.268 184.901 221.305 184.405 220.231C183.909 219.156 183.635 217.993 183.598 216.81C183.562 215.628 183.764 214.45 184.193 213.347C184.327 212.955 184.487 212.573 184.672 212.202Z" fill="#FFC6B7"/>
<path d="M190.804 225.02C188.773 225.018 186.805 224.312 185.236 223.023C183.667 221.733 182.592 219.94 182.196 217.948L169.295 153.167C168.891 150.902 169.39 148.569 170.687 146.668C171.983 144.767 173.974 143.451 176.23 143.001C178.487 142.552 180.829 143.005 182.755 144.264C184.681 145.523 186.037 147.486 186.531 149.734L199.431 214.515C199.885 216.8 199.413 219.173 198.118 221.11C196.823 223.047 194.812 224.391 192.527 224.846C191.96 224.962 191.383 225.02 190.804 225.02Z" fill="#FFC6B7"/>
<path d="M211.847 157.305C211.847 157.305 215.349 139.472 217.047 138.508C218.745 137.544 219.018 149.598 219.018 149.598C219.018 149.598 247.12 140.536 247.761 142.016C248.402 143.496 236.204 147.987 236.204 147.987C236.204 147.987 250.286 144.74 250.61 146.383C250.908 147.875 236.409 152.099 236.409 152.099C236.409 152.099 251.337 150.233 250.715 151.726C250.093 153.218 236.609 155.905 236.609 155.905C236.609 155.905 248.57 155.905 248.066 156.876C247.562 157.846 235.265 160.129 235.265 160.129C229.151 161.298 226.7 163.009 220.3 165.696C208.749 170.522 207.909 166.43 211.847 157.305Z" fill="#FFC6B7"/>
<path d="M141.909 86.7383C141.909 86.7383 138.058 97.3931 143.457 105.964C143.457 105.964 144.229 90.4827 148.234 87.9636L141.909 86.7383Z" fill="#162A45"/>
<path d="M220.885 174.714L205.783 220.81C201.621 233.505 183.353 232.522 180.573 219.454L179.901 216.276C181.462 234.905 184.796 254.498 189.387 274.744C184.796 275.341 180.322 275.851 175.964 276.274L173.128 270.676L170.764 276.715C142.562 278.986 119.797 276.946 104.079 267.161C108.126 252.155 111.475 236.802 114.125 221.102L112.458 225.923C109.093 235.639 95.3091 235.514 92.1245 225.73L76.7549 178.514L92.3049 168.705L100.907 185.138L107.021 170.988L115.474 148.036C118.112 141.455 126.67 138.706 133.407 142.133C144.683 147.912 157.161 146.487 170.478 139.857C178.079 136.075 187.527 140.336 188.777 148.086L196.863 174.714L198.406 180.685L204.638 169.315L220.885 174.714Z" fill="#724FFF"/>
<path d="M188.429 270.471C184.854 271.225 181.253 271.847 177.625 272.337C176.474 272.492 175.317 272.623 174.16 272.747L174.446 273.307L175.441 273.201C179.837 272.691 184.21 271.98 188.559 271.068L188.429 270.471Z" fill="#B4C9FF"/>
<path d="M172.256 272.921C167.811 273.336 163.353 273.558 158.883 273.587C146.301 273.652 133.762 272.124 121.563 269.04C115.93 267.616 110.386 265.857 104.962 263.771C104.912 263.958 104.863 264.151 104.807 264.344C109.544 266.166 114.373 267.74 119.274 269.058C125.353 270.693 131.53 271.939 137.766 272.79C149.103 274.352 160.582 274.602 171.976 273.537L172.256 272.921Z" fill="#B4C9FF"/>
<path d="M205.173 169.503C205.173 169.503 206.267 166.069 207.331 166.393C208.395 166.716 208.208 168.122 208.208 168.122C208.208 168.122 210.13 166.486 210.883 167.276C211.105 167.526 211.265 167.826 211.35 168.151C211.434 168.475 211.44 168.815 211.368 169.142C211.368 169.142 213.458 168.116 214.409 168.458C215.361 168.8 215.249 170.417 215.249 170.417C215.249 170.417 216.58 168.993 217.495 169.409C218.409 169.826 218.117 171.729 218.117 171.729C218.117 171.729 218.838 170.286 219.864 170.74C220.891 171.194 220.225 174.472 220.225 174.472L205.173 169.503Z" fill="#B4C9FF"/>
<path d="M77.2895 178.192C77.2895 178.192 75.9024 175.704 76.7546 175.02C77.6067 174.335 78.8258 175.02 78.8258 175.02C78.8258 175.02 78.6206 172.787 79.6842 172.532C80.7478 172.277 81.9172 173.539 81.9172 173.539C81.9172 173.539 81.3636 171.001 82.5765 170.697C83.4465 170.569 84.333 170.768 85.0645 171.257C85.0645 171.257 84.4052 168.899 85.3693 168.706C86.3334 168.514 87.4467 169.633 87.4467 169.633C87.4467 169.633 87.0424 167.96 88.3113 167.45C89.5802 166.94 91.7261 169.073 91.7261 169.073L77.2895 178.192Z" fill="#B4C9FF"/>
<path d="M172.431 175.573L171.479 174.839C168.065 172.214 167.387 169.589 167.355 169.477L167.934 169.334C167.934 169.334 168.475 171.38 170.913 173.595C170.043 171.405 168.276 166.404 168.145 161.584H168.767C168.942 167.841 171.927 174.435 171.952 174.497L172.431 175.573Z" fill="#B4C9FF"/>
<path d="M121.507 200.951C121.427 200.907 113.421 196.416 113.851 187.46C114.168 180.804 117.844 175.735 121.085 171.288L121.34 170.933C121.34 169.913 121.271 162.225 122.876 157.871L123.436 158.083C121.787 162.499 121.937 170.927 121.937 171.008V171.107L121.563 171.624C118.366 176.027 114.721 181.022 114.435 187.497C114.025 196.081 121.713 200.397 121.787 200.441L121.507 200.951Z" fill="#B4C9FF"/>
<path d="M121.495 168.967C119.498 167.667 119.007 165.136 119.007 165.03L119.592 164.918C119.592 164.918 120.064 167.306 121.843 168.47L121.495 168.967Z" fill="#B4C9FF"/>
<path d="M151.966 201.727H151.4V201.105C161.601 201.31 167.715 195.464 168.816 191.24L169.395 191.39C168.35 195.445 162.708 201.727 151.966 201.727Z" fill="#B4C9FF"/>
<path d="M115.325 218.179L114.759 217.998C116.469 212.674 117.247 197.329 117.247 197.174L117.838 197.205C117.819 197.839 117.06 212.78 115.325 218.179Z" fill="#B4C9FF"/>
<path d="M101.204 185.489L100.654 185.723L105.219 196.482L105.769 196.249L101.204 185.489Z" fill="#B4C9FF"/>
<path d="M197.455 182.297L191.62 195.434L192.166 195.676L198.001 182.539L197.455 182.297Z" fill="#B4C9FF"/>
<path d="M179.534 215.12C179.503 214.946 176.474 197.623 176.629 188.996H177.251C177.096 197.567 180.112 214.84 180.143 215.014L179.534 215.12Z" fill="#B4C9FF"/>
<path d="M153.012 153.212C153.284 153.758 153.738 154.191 154.296 154.437C154.853 154.683 155.479 154.728 156.066 154.562C158.174 153.94 158.05 151.452 158.05 151.452C158.05 151.452 160.948 152.976 161.782 151.863C162.615 150.749 161.465 148.566 161.465 148.566C161.465 148.566 163.772 148.728 164.481 147.732C165.19 146.737 163.449 145.244 163.449 145.244C163.449 145.244 165.24 144.809 165.358 143.739C165.408 143.304 164.799 142.937 164.065 142.645C154.225 146.321 144.895 146.862 136.236 143.385C135.359 143.777 134.569 144.343 134.588 145.089C134.625 146.756 136.889 146.439 136.889 146.439C136.889 146.439 135.54 147.907 135.901 148.976C136.261 150.046 138.755 149.934 138.755 149.934C138.755 149.934 137.449 152.155 138.755 152.951C140.062 153.747 142.015 152.758 142.015 152.758C142.015 152.758 142.133 155.246 143.918 155.476C144.496 155.51 145.074 155.415 145.611 155.2C146.149 154.985 146.633 154.655 147.028 154.232C147.028 154.232 149.056 155.744 150.847 155.545C152.639 155.346 153.012 153.212 153.012 153.212Z" fill="#B4C9FF"/>
<path d="M155.699 124.4L157.049 145.15C157.049 145.15 148.005 150.985 140.696 146.394L140.957 130.645L155.699 124.4Z" fill="#FFC6B7"/>
<path d="M140.846 137.499C143.535 137.757 146.249 137.408 148.785 136.477C151.321 135.545 153.616 134.056 155.5 132.119H140.933L140.846 137.499Z" fill="#162A45"/>
<path d="M147.501 146.351L138.507 144.236C138.507 154.419 155.879 156.956 162.765 143.123L147.501 146.351Z" fill="#FFC6B7"/>
<path d="M148.396 89.1141C164.755 91.2724 170.403 102.699 164.034 119.922C158.964 133.606 147.998 138.905 137.605 134.035C129.382 130.172 125.886 121.769 127.976 111.102C130.956 95.8752 138.706 87.839 148.396 89.1141Z" fill="#FFC6B7"/>
<path d="M170.278 114.007C170.394 112.529 170.394 111.044 170.278 109.566C169.831 103.607 167.529 97.9653 163.729 94.0156C161.444 91.6318 158.609 89.8444 155.473 88.8099C152.337 87.7754 148.996 87.5254 145.741 88.0818C145.59 88.1181 145.456 88.2041 145.36 88.326C145.264 88.4478 145.212 88.5985 145.212 88.7535C145.084 88.7823 144.97 88.8544 144.89 88.9576C144.809 89.0608 144.767 89.1887 144.77 89.3196C144.397 95.5221 145.79 101.703 148.788 107.146C151.721 112.388 156.398 116.438 162.006 118.591C163.386 119.126 164.821 119.506 166.285 119.723C167.392 119.866 168.661 119.723 169.395 118.479C170.129 117.235 170.173 115.406 170.278 114.007Z" fill="#162A45"/>
<path d="M161.521 120.308C159.829 122.479 159.866 125.054 161.434 126.285C163.001 127.517 165.657 126.746 167.349 124.575C169.041 122.404 169.146 119.649 167.573 118.423C165.999 117.198 163.219 118.143 161.521 120.308Z" fill="#FFC6B7"/>
<path d="M162.441 124.096C162.304 124.1 162.171 124.05 162.072 123.956C161.972 123.862 161.914 123.732 161.909 123.595C161.905 123.458 161.956 123.325 162.05 123.226C162.144 123.126 162.273 123.067 162.41 123.063C162.63 123.059 162.845 122.993 163.029 122.873C163.214 122.753 163.361 122.584 163.455 122.385C163.497 122.18 163.497 121.969 163.455 121.763C163.409 121.49 163.409 121.21 163.455 120.936C163.522 120.655 163.645 120.39 163.817 120.158C163.989 119.926 164.207 119.732 164.457 119.586C164.741 119.405 165.064 119.295 165.4 119.266C165.736 119.236 166.074 119.289 166.385 119.418C166.803 119.644 167.128 120.012 167.301 120.455C167.474 120.898 167.485 121.388 167.33 121.838C167.292 121.966 167.207 122.074 167.091 122.141C166.975 122.207 166.838 122.225 166.708 122.193C166.581 122.153 166.474 122.067 166.408 121.952C166.342 121.836 166.322 121.7 166.354 121.571C166.434 121.356 166.44 121.121 166.37 120.903C166.3 120.685 166.158 120.497 165.968 120.37C165.806 120.315 165.634 120.299 165.464 120.321C165.295 120.344 165.133 120.405 164.991 120.501C164.865 120.574 164.755 120.671 164.668 120.788C164.58 120.904 164.517 121.037 164.481 121.179C164.459 121.35 164.459 121.524 164.481 121.695C164.534 122.034 164.511 122.38 164.413 122.709C164.255 123.104 163.986 123.445 163.638 123.69C163.291 123.935 162.879 124.074 162.454 124.09L162.441 124.096Z" fill="#AD6253"/>
<path d="M131.863 103.793C131.863 103.793 136.684 102.276 139.806 102.394C137.791 100.323 133.543 102.046 131.863 103.793Z" fill="#162A45"/>
<path d="M154.79 109.472C154.79 109.472 150.598 106.642 147.575 105.871C150.063 104.496 153.633 107.339 154.79 109.472Z" fill="#162A45"/>
<path d="M136.131 111.189C136 111.438 135.801 111.645 135.557 111.785C135.313 111.925 135.035 111.993 134.754 111.982C134.473 111.97 134.201 111.879 133.97 111.719C133.739 111.559 133.557 111.337 133.447 111.078C133.337 110.819 133.303 110.535 133.348 110.257C133.394 109.98 133.517 109.721 133.703 109.51C133.89 109.3 134.132 109.147 134.402 109.068C134.672 108.99 134.959 108.99 135.229 109.068C135.625 109.235 135.941 109.55 136.11 109.946C136.278 110.342 136.286 110.788 136.131 111.189Z" fill="#162A45"/>
<path d="M134.912 110.162C134.869 110.239 134.805 110.301 134.729 110.343C134.652 110.385 134.565 110.404 134.477 110.399C134.39 110.394 134.306 110.364 134.235 110.313C134.163 110.262 134.108 110.192 134.074 110.111C134.041 110.03 134.031 109.942 134.046 109.855C134.06 109.769 134.099 109.689 134.157 109.623C134.215 109.558 134.291 109.51 134.375 109.486C134.459 109.461 134.548 109.461 134.632 109.484C134.757 109.539 134.857 109.64 134.909 109.767C134.961 109.893 134.962 110.035 134.912 110.162Z" fill="white"/>
<path d="M149.628 115.07C149.497 115.316 149.298 115.52 149.055 115.659C148.813 115.797 148.536 115.864 148.257 115.852C147.978 115.84 147.708 115.749 147.478 115.589C147.249 115.43 147.069 115.209 146.96 114.952C146.85 114.695 146.816 114.412 146.861 114.137C146.905 113.861 147.027 113.603 147.212 113.394C147.396 113.184 147.637 113.031 147.905 112.953C148.173 112.874 148.457 112.873 148.726 112.949C149.125 113.113 149.443 113.428 149.612 113.825C149.781 114.221 149.786 114.669 149.628 115.07Z" fill="#162A45"/>
<path d="M148.415 114.026C148.372 114.102 148.309 114.164 148.232 114.206C148.155 114.248 148.068 114.268 147.98 114.262C147.893 114.257 147.809 114.227 147.738 114.176C147.666 114.125 147.611 114.056 147.578 113.975C147.544 113.894 147.534 113.805 147.549 113.719C147.563 113.632 147.602 113.552 147.66 113.487C147.718 113.421 147.794 113.373 147.878 113.349C147.962 113.324 148.051 113.324 148.135 113.348C148.261 113.402 148.36 113.504 148.412 113.63C148.464 113.757 148.465 113.898 148.415 114.026Z" fill="white"/>
<path d="M138.327 118.702C138.247 118.7 138.169 118.684 138.096 118.652C137.764 118.518 137.465 118.313 137.219 118.052C136.973 117.792 136.787 117.481 136.672 117.141C136.618 116.888 136.623 116.626 136.685 116.375C136.748 116.124 136.867 115.89 137.033 115.692C137.371 115.281 137.743 114.9 138.146 114.553C138.509 114.232 138.847 113.885 139.16 113.515C139.2 113.46 139.251 113.413 139.309 113.378C139.367 113.343 139.431 113.32 139.499 113.31C139.566 113.3 139.634 113.304 139.7 113.321C139.766 113.338 139.828 113.368 139.882 113.409C139.936 113.449 139.983 113.499 140.018 113.557C140.053 113.615 140.077 113.68 140.087 113.747C140.097 113.814 140.094 113.882 140.078 113.948C140.062 114.014 140.034 114.076 139.994 114.131C139.645 114.554 139.263 114.947 138.849 115.306C138.496 115.615 138.165 115.95 137.86 116.308C137.611 116.637 137.661 116.836 137.68 116.93C137.742 117.203 138.065 117.502 138.557 117.751C138.68 117.811 138.773 117.917 138.818 118.047C138.862 118.176 138.853 118.318 138.793 118.441C138.746 118.522 138.678 118.59 138.596 118.636C138.514 118.682 138.421 118.705 138.327 118.702Z" fill="#AD6253"/>
<path d="M140.927 122.373C141.62 122.634 142.24 123.061 142.731 123.617C142.847 123.751 142.906 123.925 142.894 124.103C142.883 124.28 142.802 124.445 142.668 124.562C142.533 124.678 142.358 124.736 142.18 124.724C142.002 124.713 141.836 124.632 141.717 124.5C141.204 123.943 140.525 123.566 139.781 123.426C139.036 123.286 138.267 123.39 137.587 123.723C137.512 123.771 137.429 123.803 137.342 123.819C137.255 123.835 137.166 123.833 137.08 123.814C136.993 123.795 136.912 123.76 136.839 123.709C136.766 123.659 136.704 123.595 136.657 123.521C136.609 123.446 136.576 123.363 136.561 123.276C136.545 123.189 136.546 123.1 136.565 123.014C136.584 122.927 136.62 122.846 136.67 122.773C136.72 122.7 136.784 122.638 136.859 122.591C137.48 122.26 138.166 122.07 138.869 122.032C139.571 121.995 140.274 122.111 140.927 122.373Z" fill="#C16B5B"/>
</g>
<defs>
<clipPath id="clip0_186_4627">
<rect width="311" height="311" fill="white"/>
</clipPath>
</defs>
</svg>
