<svg width="178" height="72" viewBox="0 0 178 72" fill="none" xmlns="http://www.w3.org/2000/svg">
<path d="M47.6804 35.1133C47.6305 39.2963 47.5834 43.479 47.5391 47.6613C44.7373 51.4441 41.2946 53.7961 38.1395 54.9293C36.3404 55.5736 33.0007 56.4025 30.2198 54.7555C26.6324 52.6272 26.1086 47.4776 25.8708 45.1614C25.5308 41.8143 25.8176 35.3902 25.6979 33.8139C25.6231 32.8719 25.4884 31.9474 25.4884 31.9474C25.3187 30.7252 25.0171 29.5249 24.5889 28.3675C24.0625 26.9459 23.33 25.6095 22.4148 24.401C23.7367 22.8314 26.7072 20.802 30.0394 20.161C37.0911 18.8116 42.7678 24.283 43.0305 24.5415C47.1134 28.6003 47.5923 33.6617 47.6804 35.1133Z" fill="#D9D9D9"/>
<path d="M47.5392 47.6613C47.4469 48.3023 47.3297 49.0356 47.1568 49.8537H47.146C46.7907 51.5054 46.2856 53.1214 45.637 54.6815C44.8122 56.6189 43.7729 58.4577 42.5385 60.1636C40.9971 62.2952 38.3558 65.9575 33.3725 68.4973C30.0183 70.1993 26.2996 71.0574 22.5388 70.9973C18.0585 70.895 14.7862 69.4742 13.7378 68.9854C5.36333 65.0895 2.37618 57.0043 1.89066 55.6833C1.80752 55.4605 1.74517 55.2834 1.70277 55.1628C0.229562 50.9162 0.125639 46.7302 0.0425013 43.4986C0.0283679 42.9914 -0.0456249 39.5911 0.0425013 35.115C0.0499837 34.814 0.0533098 34.4499 0.0599609 34.3468C0.424936 26.4487 6.40006 20.1734 13.7345 20.1626H13.742C14.0453 20.2004 14.3508 20.2182 14.6565 20.2158H14.6989C14.7425 20.2204 14.7864 20.2226 14.8302 20.2225C14.9035 20.2212 14.9767 20.2237 15.0497 20.2299C16.4069 20.37 17.7323 20.73 18.9738 21.2958C19.0195 21.3212 19.0667 21.3437 19.1152 21.3631C19.1436 21.3864 19.1746 21.4065 19.2075 21.423C20.674 22.2543 21.5129 23.2794 22.2146 24.1466C22.2636 24.2073 22.3351 24.2921 22.4166 24.396C23.3316 25.6061 24.0636 26.9443 24.589 28.3675C25.0175 29.5262 25.3191 30.7279 25.4885 31.9516C25.4885 31.9516 25.6232 32.8761 25.698 33.818C25.8178 35.3976 25.5318 41.8184 25.871 45.1655C26.1087 47.4817 26.6325 52.6313 30.2199 54.7596C33.0009 56.4066 36.3405 55.5777 38.1396 54.9334C41.2947 53.7961 44.7375 51.4441 47.5392 47.6613Z" fill="white"/>
<path d="M39.3224 32.9743V48.7705C39.3224 48.8387 39.3224 48.906 39.3224 48.9742C39.2301 56.6162 33.9741 62.9497 27.0537 64.299C25.2326 64.6538 23.3602 64.6538 21.5392 64.299C14.6163 62.948 9.36113 56.6146 9.27051 48.9726C9.27051 48.9044 9.27051 48.837 9.27051 48.7689V32.9727H17.0855V48.6533C17.0855 52.8418 20.3154 56.2363 24.301 56.2363C28.2866 56.2363 31.5099 52.8435 31.5099 48.6533V32.9743H39.3224Z" fill="#724FFF"/>
<path d="M13.3771 40.1346C16.8782 40.1346 19.7164 37.2964 19.7164 33.7953C19.7164 30.2942 16.8782 27.4561 13.3771 27.4561C9.87603 27.4561 7.03784 30.2942 7.03784 33.7953C7.03784 37.2964 9.87603 40.1346 13.3771 40.1346Z" fill="white"/>
<path d="M13.3772 25.4575C11.7279 25.4564 10.1154 25.9444 8.74347 26.8598C7.37158 27.7752 6.30199 29.0769 5.66997 30.6002C5.03795 32.1236 4.8719 33.8002 5.19283 35.4179C5.51376 37.0356 6.30724 38.5218 7.47292 39.6886C8.6386 40.8553 10.1241 41.6501 11.7415 41.9725C13.359 42.2949 15.0357 42.1303 16.5596 41.4997C18.0836 40.869 19.3862 39.8006 20.3029 38.4295C21.2195 37.0585 21.7089 35.4463 21.7093 33.7971C21.706 31.5876 20.8273 29.4694 19.2657 27.9064C17.704 26.3434 15.5867 25.4628 13.3772 25.4575ZM13.3772 38.1377C12.4742 38.1366 11.5939 37.8547 10.8583 37.3311C10.1226 36.8075 9.5679 36.0682 9.27099 35.2154C9.11138 34.7596 9.03014 34.28 9.03072 33.7971C9.03072 33.2266 9.14308 32.6618 9.36139 32.1347C9.57969 31.6077 9.89966 31.1288 10.303 30.7254C10.7064 30.3221 11.1853 30.0021 11.7123 29.7838C12.2394 29.5655 12.8042 29.4531 13.3747 29.4531C13.9451 29.4531 14.51 29.5655 15.037 29.7838C15.5641 30.0021 16.0429 30.3221 16.4463 30.7254C16.8497 31.1288 17.1697 31.6077 17.388 32.1347C17.6063 32.6618 17.7186 33.2266 17.7186 33.7971C17.714 34.9469 17.2552 36.0483 16.4422 36.8613C15.6292 37.6743 14.5278 38.1331 13.378 38.1377H13.3772Z" fill="#724FFF"/>
<path d="M10.871 15.995C14.0925 15.995 16.704 13.3835 16.704 10.1621C16.704 6.94061 14.0925 4.3291 10.871 4.3291C7.64959 4.3291 5.03809 6.94061 5.03809 10.1621C5.03809 13.3835 7.64959 15.995 10.871 15.995Z" fill="white"/>
<path d="M37.5377 16.6609C41.5871 16.6609 44.8697 13.3783 44.8697 9.32901C44.8697 5.27969 41.5871 1.99707 37.5377 1.99707C33.4884 1.99707 30.2058 5.27969 30.2058 9.32901C30.2058 13.3783 33.4884 16.6609 37.5377 16.6609Z" fill="#D9D9D9"/>
<path d="M35.5022 25.9741L27.1252 38.7424H43.8792L35.5022 25.9741Z" fill="#724FFF"/>
<path d="M82.9619 21.7759C82.9619 23.2187 82.7557 24.476 82.3435 25.5479C81.9519 26.5991 81.3954 27.4751 80.674 28.1759C79.9732 28.8767 79.1281 29.4023 78.1387 29.7527C77.1493 30.0824 76.0672 30.2473 74.8924 30.2473C73.7175 30.2473 72.6354 30.0824 71.646 29.7527C70.6566 29.4023 69.8013 28.8767 69.0798 28.1759C68.379 27.4751 67.8225 26.5991 67.4103 25.5479C67.0187 24.476 66.8229 23.2187 66.8229 21.7759V8.35765H70.8421V21.8377C70.8421 24.9707 72.1922 26.5372 74.8924 26.5372C77.5925 26.5372 78.9426 24.9707 78.9426 21.8377V8.35765H82.9619V21.7759ZM88.9468 14.4175L92.1004 25.2696L95.254 14.4175H99.1187L93.8318 30H90.369L85.0821 14.4175H88.9468ZM114.889 23.4455H104.161C104.181 23.8783 104.274 24.3112 104.439 24.744C104.604 25.1562 104.841 25.5272 105.15 25.857C105.459 26.1868 105.83 26.4548 106.263 26.6609C106.717 26.867 107.242 26.9701 107.84 26.9701C108.726 26.9701 109.448 26.7846 110.004 26.4136C110.561 26.0219 111.066 25.4654 111.519 24.744L114.611 25.888C114.302 26.5269 113.941 27.1144 113.529 27.6503C113.117 28.1862 112.632 28.6499 112.076 29.0416C111.519 29.4126 110.87 29.7114 110.128 29.9382C109.406 30.1443 108.572 30.2473 107.624 30.2473C106.284 30.2473 105.14 30 104.192 29.5053C103.244 29.0106 102.471 28.382 101.873 27.6193C101.275 26.8361 100.832 25.9704 100.543 25.0223C100.275 24.0741 100.141 23.1363 100.141 22.2088C100.141 21.2812 100.275 20.3434 100.543 19.3952C100.832 18.4471 101.275 17.5917 101.873 16.8291C102.471 16.0458 103.244 15.4069 104.192 14.9122C105.14 14.4175 106.284 14.1702 107.624 14.1702C108.922 14.1702 110.025 14.4175 110.932 14.9122C111.859 15.3863 112.612 16.0046 113.189 16.7673C113.786 17.5093 114.219 18.3337 114.487 19.2407C114.755 20.1476 114.889 21.0236 114.889 21.8687V23.4455ZM107.624 17.4474C107.129 17.4474 106.686 17.5402 106.294 17.7257C105.923 17.8906 105.593 18.1173 105.305 18.4059C105.037 18.6738 104.81 18.983 104.624 19.3334C104.439 19.6838 104.315 20.0445 104.253 20.4155H110.963C110.88 20.0239 110.756 19.6529 110.592 19.3025C110.427 18.9521 110.21 18.6429 109.942 18.375C109.674 18.0864 109.345 17.8597 108.953 17.6948C108.582 17.5299 108.139 17.4474 107.624 17.4474ZM121.691 14.4175V16.9218C122.268 16.0974 122.958 15.4378 123.762 14.9431C124.587 14.4278 125.504 14.1702 126.514 14.1702C127.916 14.1702 129.059 14.5618 129.946 15.345C130.853 16.1283 131.306 17.3032 131.306 18.8697V30H127.472V20.0136C127.472 19.0861 127.266 18.4265 126.854 18.0349C126.442 17.6433 125.906 17.4474 125.246 17.4474C124.772 17.4474 124.319 17.5917 123.886 17.8803C123.474 18.1482 123.103 18.5502 122.773 19.0861C122.443 19.622 122.175 20.2816 121.969 21.0648C121.784 21.848 121.691 22.755 121.691 23.7856V30H117.857V14.4175H121.691ZM143.903 29.9072C143.635 29.9897 143.316 30.0618 142.944 30.1237C142.594 30.2061 142.141 30.2473 141.584 30.2473C139.956 30.2473 138.637 29.7733 137.627 28.8251C136.637 27.877 136.143 26.4342 136.143 24.4967V17.6948H133.731V14.4175H136.143V10.5219L139.976 8.11031V14.4175H144.088V17.6948H139.976V24.4348C139.976 25.4036 140.152 26.0735 140.502 26.4445C140.852 26.7949 141.357 26.9701 142.017 26.9701C142.367 26.9701 142.687 26.9288 142.975 26.8464C143.264 26.764 143.573 26.6403 143.903 26.4754V29.9072ZM151.038 8.11031V30H147.204V8.11031H151.038ZM154.066 22.2088C154.066 21.0751 154.241 20.0239 154.592 19.0552C154.942 18.0658 155.457 17.2104 156.138 16.489C156.818 15.7676 157.642 15.2008 158.611 14.7885C159.6 14.3763 160.724 14.1702 161.981 14.1702C163.238 14.1702 164.351 14.3763 165.32 14.7885C166.31 15.2008 167.144 15.7676 167.824 16.489C168.505 17.2104 169.02 18.0658 169.37 19.0552C169.721 20.0239 169.896 21.0751 169.896 22.2088C169.896 23.3424 169.721 24.4039 169.37 25.3933C169.02 26.362 168.505 27.2071 167.824 27.9285C167.144 28.6499 166.31 29.2168 165.32 29.629C164.351 30.0412 163.238 30.2473 161.981 30.2473C160.724 30.2473 159.6 30.0412 158.611 29.629C157.642 29.2168 156.818 28.6499 156.138 27.9285C155.457 27.2071 154.942 26.362 154.592 25.3933C154.241 24.4039 154.066 23.3424 154.066 22.2088ZM158.085 22.2088C158.085 22.8477 158.168 23.4558 158.333 24.0329C158.518 24.61 158.776 25.115 159.106 25.5479C159.436 25.9807 159.837 26.3311 160.312 26.5991C160.806 26.8464 161.363 26.9701 161.981 26.9701C162.599 26.9701 163.146 26.8464 163.62 26.5991C164.114 26.3311 164.527 25.9807 164.856 25.5479C165.186 25.115 165.434 24.61 165.598 24.0329C165.784 23.4558 165.877 22.8477 165.877 22.2088C165.877 21.5698 165.784 20.9617 165.598 20.3846C165.434 19.8075 165.186 19.3025 164.856 18.8697C164.527 18.4368 164.114 18.0967 163.62 17.8494C163.146 17.5814 162.599 17.4474 161.981 17.4474C161.363 17.4474 160.806 17.5814 160.312 17.8494C159.837 18.0967 159.436 18.4368 159.106 18.8697C158.776 19.3025 158.518 19.8075 158.333 20.3846C158.168 20.9617 158.085 21.5698 158.085 22.2088Z" fill="white"/>
<path d="M66.7144 69.7418L65.873 65.6797C67.6139 65.4669 69.0743 65.1865 70.2542 64.8383C71.4535 64.5094 72.382 63.9678 73.0397 63.2134H72.2563C70.438 63.2134 69.0066 62.8846 67.962 62.2269C66.9369 61.5499 66.4243 60.399 66.4243 58.7741C66.4243 57.9037 66.5693 57.0332 66.8595 56.1628C67.169 55.2923 67.5945 54.4993 68.1361 53.7836C68.6778 53.0485 69.3064 52.4682 70.0221 52.0427C70.7572 51.5978 71.5502 51.3753 72.4013 51.3753C73.5426 51.3753 74.5485 51.7332 75.4189 52.4489C76.3087 53.1646 76.9954 54.1124 77.479 55.2923C77.9819 56.4723 78.2334 57.7586 78.2334 59.1513H80.5255C81.2413 59.1513 81.7635 59.3448 82.0924 59.7316C82.4212 60.0992 82.5856 60.5634 82.5856 61.1244C82.5856 61.724 82.3825 62.2269 81.9763 62.6331C81.5701 63.02 80.9898 63.2134 80.2354 63.2134H77.566C76.8116 65.2251 75.4963 66.7726 73.62 67.8558C71.763 68.9584 69.4612 69.5871 66.7144 69.7418ZM70.4283 58.0778C70.4283 58.2906 70.496 58.513 70.6314 58.7451C70.7862 58.9579 71.1247 59.132 71.647 59.2674C72.1692 59.3835 73.001 59.3931 74.1422 59.2964C74.1229 58.1745 73.9391 57.2944 73.591 56.656C73.2428 55.9984 72.7882 55.6695 72.2273 55.6695C71.821 55.6695 71.4825 55.8146 71.2117 56.1048C70.9409 56.3756 70.7378 56.7044 70.6024 57.0913C70.4864 57.4588 70.4283 57.7876 70.4283 58.0778ZM80.2764 63.2134L80.5666 59.1513C81.4564 59.1513 82.0947 59.0643 82.4816 58.8902C82.8684 58.6968 83.1006 58.3486 83.1779 57.8457C83.2553 57.3234 83.2746 56.569 83.236 55.5825L82.7717 41.8294H86.8918L87.3851 55.5535C87.4238 56.54 87.5399 57.2944 87.7333 57.8166C87.9267 58.3196 88.2459 58.6677 88.6908 58.8612C89.155 59.0546 89.774 59.1513 90.5477 59.1513C91.2828 59.1513 91.8051 59.3448 92.1146 59.7316C92.424 60.0992 92.5788 60.5634 92.5788 61.1244C92.5788 61.724 92.3757 62.2269 91.9695 62.6331C91.5633 63.02 90.9926 63.2134 90.2576 63.2134C89.2517 63.2134 88.3329 63.078 87.5012 62.8072C86.6694 62.5364 86.0407 61.9851 85.6152 61.1534C85.0736 61.9658 84.3772 62.5171 83.5261 62.8072C82.675 63.078 81.5918 63.2134 80.2764 63.2134ZM90.2503 63.2134L90.5405 59.1513C91.2368 59.1513 91.8365 59.0836 92.3394 58.9482C92.8423 58.8128 93.2679 58.542 93.6161 58.1358C93.9643 57.7103 94.2544 57.0913 94.4865 56.2788C94.738 55.4664 94.9604 54.3832 95.1539 53.0292L98.9548 53.6675C98.8775 54.1124 98.7904 54.6443 98.6937 55.2633C98.597 55.8823 98.5486 56.4529 98.5486 56.9752C98.5486 57.6716 98.8388 58.2132 99.4191 58.6C99.9994 58.9676 100.996 59.1513 102.408 59.1513C103.123 59.1513 103.636 59.3448 103.945 59.7316C104.274 60.0992 104.439 60.5634 104.439 61.1244C104.439 61.724 104.236 62.2269 103.829 62.6331C103.442 63.02 102.872 63.2134 102.117 63.2134C100.763 63.2134 99.6028 63.0393 98.6357 62.6912C97.6879 62.343 96.9915 61.724 96.5466 60.8342C96.0243 61.5306 95.4053 62.0528 94.6896 62.401C93.9933 62.7299 93.2582 62.9523 92.4845 63.0684C91.7301 63.1651 90.9854 63.2134 90.2503 63.2134ZM94.5446 50.3888C93.9836 50.3888 93.5 50.1954 93.0938 49.8085C92.7069 49.4023 92.5135 48.9284 92.5135 48.3868C92.5135 47.8258 92.7069 47.3422 93.0938 46.936C93.5 46.5298 93.9836 46.3267 94.5446 46.3267C95.0862 46.3267 95.5504 46.5298 95.9373 46.936C96.3241 47.3422 96.5176 47.8258 96.5176 48.3868C96.5176 48.9284 96.3241 49.4023 95.9373 49.8085C95.5504 50.1954 95.0862 50.3888 94.5446 50.3888ZM99.5642 50.4178C99.0032 50.4178 98.5196 50.2244 98.1134 49.8375C97.7265 49.4506 97.5331 48.9767 97.5331 48.4158C97.5331 47.8548 97.7265 47.3712 98.1134 46.965C98.5196 46.5588 99.0032 46.3557 99.5642 46.3557C100.106 46.3557 100.57 46.5588 100.957 46.965C101.344 47.3712 101.537 47.8548 101.537 48.4158C101.537 48.9767 101.344 49.4506 100.957 49.8375C100.57 50.2244 100.106 50.4178 99.5642 50.4178ZM102.123 63.2134L102.413 59.1513C103.148 59.1513 103.728 59.0836 104.154 58.9482C104.599 58.8128 104.947 58.542 105.198 58.1358C105.469 57.7103 105.692 57.0913 105.866 56.2788C106.059 55.4664 106.252 54.3832 106.446 53.0292L110.247 53.6675C110.17 54.1124 110.082 54.6443 109.986 55.2633C109.889 55.8823 109.841 56.4529 109.841 56.9752C109.841 57.4394 109.937 57.836 110.131 58.1648C110.344 58.4937 110.711 58.7451 111.233 58.9192C111.775 59.074 112.549 59.1513 113.555 59.1513C114.29 59.1513 114.812 59.3448 115.121 59.7316C115.431 60.0992 115.586 60.5634 115.586 61.1244C115.586 61.724 115.383 62.2269 114.976 62.6331C114.589 63.02 114.019 63.2134 113.264 63.2134C111.717 63.2134 110.508 63.049 109.638 62.7202C108.786 62.3913 108.177 61.8014 107.81 60.9503C107.094 61.9561 106.243 62.5848 105.256 62.8362C104.289 63.0877 103.245 63.2134 102.123 63.2134ZM108.332 50.3598C107.732 50.3598 107.22 50.1567 106.794 49.7505C106.388 49.3443 106.185 48.8413 106.185 48.2417C106.185 47.642 106.388 47.1294 106.794 46.7039C107.22 46.2783 107.732 46.0656 108.332 46.0656C108.912 46.0656 109.405 46.2783 109.812 46.7039C110.237 47.1294 110.45 47.642 110.45 48.2417C110.45 48.8413 110.237 49.3443 109.812 49.7505C109.405 50.1567 108.912 50.3598 108.332 50.3598ZM113.258 63.2134L113.548 59.1803C115.135 59.1803 116.421 59.1707 117.407 59.1513C118.394 59.132 119.158 59.0933 119.7 59.0353C120.261 58.9579 120.677 58.8709 120.947 58.7741C121.218 58.6581 121.45 58.5323 121.644 58.3969C121.798 58.2809 121.934 58.1358 122.05 57.9617C122.185 57.7876 122.301 57.5749 122.398 57.3234C121.605 57.6135 120.783 57.7586 119.932 57.7586C118.384 57.7586 117.166 57.4394 116.276 56.8011C115.386 56.1434 114.941 54.9925 114.941 53.3483C114.941 52.4972 115.086 51.6558 115.376 50.824C115.667 49.9729 116.082 49.2089 116.624 48.5318C117.166 47.8355 117.804 47.2842 118.539 46.878C119.274 46.4524 120.087 46.2397 120.976 46.2397C122.292 46.2397 123.375 46.6265 124.226 47.4003C125.096 48.1546 125.735 49.1798 126.141 50.4758C126.567 51.7525 126.779 53.1742 126.779 54.7411C126.779 56.1144 126.576 57.3137 126.17 58.3389C125.764 59.3448 125.28 60.1378 124.719 60.7181C124.255 61.2017 123.723 61.6079 123.123 61.9368C122.524 62.2656 121.789 62.5267 120.918 62.7202C120.067 62.8943 119.013 63.02 117.756 63.0974C116.518 63.1747 115.019 63.2134 113.258 63.2134ZM118.945 52.5649C118.945 53.3967 119.593 53.8126 120.889 53.8126C121.508 53.8126 122.127 53.7159 122.746 53.5224C122.65 52.4585 122.427 51.6461 122.079 51.0852C121.731 50.5242 121.286 50.2437 120.744 50.2437C120.28 50.2437 119.864 50.4662 119.497 50.9111C119.129 51.356 118.945 51.9073 118.945 52.5649ZM120.918 43.5413C120.319 43.5413 119.806 43.3382 119.38 42.9319C118.974 42.5257 118.771 42.0228 118.771 41.4232C118.771 40.8235 118.974 40.3109 119.38 39.8854C119.806 39.4598 120.319 39.247 120.918 39.247C121.499 39.247 121.992 39.4598 122.398 39.8854C122.824 40.3109 123.036 40.8235 123.036 41.4232C123.036 42.0228 122.824 42.5257 122.398 42.9319C121.992 43.3382 121.499 43.5413 120.918 43.5413ZM129.561 69.7418L128.72 65.6797C130.461 65.4669 131.921 65.1865 133.101 64.8383C134.3 64.5094 135.229 63.9678 135.887 63.2134H135.103C133.285 63.2134 131.854 62.8846 130.809 62.2269C129.784 61.5499 129.271 60.399 129.271 58.7741C129.271 57.9037 129.416 57.0332 129.706 56.1628C130.016 55.2923 130.441 54.4993 130.983 53.7836C131.525 53.0485 132.153 52.4682 132.869 52.0427C133.604 51.5978 134.397 51.3753 135.248 51.3753C136.39 51.3753 137.395 51.7332 138.266 52.4489C139.156 53.1646 139.842 54.1124 140.326 55.2923C140.829 56.4723 141.08 57.7586 141.08 59.1513H143.373C144.088 59.1513 144.61 59.3448 144.939 59.7316C145.268 60.0992 145.433 60.5634 145.433 61.1244C145.433 61.724 145.229 62.2269 144.823 62.6331C144.417 63.02 143.837 63.2134 143.082 63.2134H140.413C139.659 65.2251 138.343 66.7726 136.467 67.8558C134.61 68.9584 132.308 69.5871 129.561 69.7418ZM133.275 58.0778C133.275 58.2906 133.343 58.513 133.478 58.7451C133.633 58.9579 133.972 59.132 134.494 59.2674C135.016 59.3835 135.848 59.3931 136.989 59.2964C136.97 58.1745 136.786 57.2944 136.438 56.656C136.09 55.9984 135.635 55.6695 135.074 55.6695C134.668 55.6695 134.33 55.8146 134.059 56.1048C133.788 56.3756 133.585 56.7044 133.449 57.0913C133.333 57.4588 133.275 57.7876 133.275 58.0778ZM143.123 63.2134L143.414 59.1513H151.77C152.505 59.1513 153.027 59.3448 153.337 59.7316C153.666 60.0992 153.83 60.5634 153.83 61.1244C153.83 61.724 153.627 62.2269 153.221 62.6331C152.814 63.02 152.234 63.2134 151.48 63.2134H143.123ZM151.511 63.2134L151.801 59.1513H160.157C160.892 59.1513 161.414 59.3448 161.724 59.7316C162.053 60.0992 162.217 60.5634 162.217 61.1244C162.217 61.724 162.014 62.2269 161.608 62.6331C161.202 63.02 160.621 63.2134 159.867 63.2134H151.511ZM159.898 63.2134L160.188 59.1513C161.348 59.1513 162.238 59.0933 162.857 58.9772C163.476 58.8612 163.902 58.6484 164.134 58.3389C164.385 58.0101 164.511 57.5458 164.511 56.9462C164.511 56.4046 164.434 55.7566 164.279 55.0022C164.144 54.2478 163.96 53.4741 163.728 52.681C163.496 51.8686 163.263 51.1142 163.031 50.4178L167.035 49.3152C167.268 49.9729 167.5 50.737 167.732 51.6074C167.983 52.4779 168.186 53.3773 168.341 54.3058C168.496 55.2343 168.573 56.1144 168.573 56.9462C168.573 58.2615 168.36 59.3351 167.935 60.1669C167.509 60.9793 166.91 61.6079 166.136 62.0528C165.382 62.4977 164.472 62.8072 163.409 62.9813C162.345 63.1361 161.174 63.2134 159.898 63.2134ZM167.064 69.9449C166.503 69.9449 166.02 69.7515 165.614 69.3646C165.227 68.9778 165.033 68.5038 165.033 67.9429C165.033 67.3819 165.227 66.8983 165.614 66.4921C166.02 66.0859 166.503 65.8828 167.064 65.8828C167.606 65.8828 168.07 66.0859 168.457 66.4921C168.844 66.8983 169.037 67.3819 169.037 67.9429C169.037 68.5038 168.844 68.9778 168.457 69.3646C168.07 69.7515 167.606 69.9449 167.064 69.9449ZM162.045 69.9449C161.484 69.9449 161 69.7515 160.594 69.3646C160.207 68.9778 160.014 68.5038 160.014 67.9429C160.014 67.3819 160.207 66.8983 160.594 66.4921C161 66.0859 161.484 65.8828 162.045 65.8828C162.586 65.8828 163.051 66.0859 163.438 66.4921C163.824 66.8983 164.018 67.3819 164.018 67.9429C164.018 68.5038 163.824 68.9778 163.438 69.3646C163.051 69.7515 162.586 69.9449 162.045 69.9449Z" fill="white"/>
</svg>
