<svg width="35" height="48" viewBox="0 0 35 48" fill="none" xmlns="http://www.w3.org/2000/svg">
<path d="M34.0635 22.9114C34.0279 25.8054 33.9942 28.6991 33.9625 31.5927C31.9609 34.2097 29.5014 35.8369 27.2474 36.6209C25.9621 37.0667 23.5762 37.6401 21.5895 36.5007C19.0266 35.0282 18.6524 31.4655 18.4825 29.8631C18.2396 27.5474 18.4445 23.103 18.359 22.0124C18.3055 21.3607 18.2093 20.7211 18.2093 20.7211C18.088 19.8755 17.8726 19.0451 17.5667 18.2444C17.1906 17.2609 16.6673 16.3363 16.0135 15.5002C16.9579 14.4143 19.08 13.0103 21.4606 12.5668C26.4984 11.6333 30.5539 15.4185 30.7416 15.5974C33.6584 18.4055 34.0006 21.9072 34.0635 22.9114Z" fill="#5544B7"/>
<path d="M33.9625 31.5926C33.8966 32.036 33.8128 32.5434 33.6893 33.1093H33.6816C33.4278 34.2521 33.067 35.3701 32.6036 36.4494C32.0143 37.7898 31.2718 39.062 30.3899 40.2422C29.2887 41.7169 27.4018 44.2506 23.8417 46.0078C21.4454 47.1853 18.7887 47.7789 16.102 47.7374C12.9012 47.6666 10.5634 46.6836 9.81444 46.3454C3.83162 43.6501 1.69757 38.0565 1.35071 37.1425C1.29131 36.9884 1.24677 36.8658 1.21647 36.7824C0.164001 33.8444 0.089758 30.9484 0.0303634 28.7126C0.0202663 28.3618 -0.0325949 26.0093 0.0303634 22.9125C0.0357089 22.7043 0.0380851 22.4524 0.0428367 22.381C0.303579 16.9168 4.57227 12.5753 9.81206 12.5679H9.81741C10.0341 12.594 10.2524 12.6063 10.4708 12.6047H10.501C10.5322 12.6079 10.5635 12.6094 10.5949 12.6093C10.6472 12.6084 10.6995 12.6102 10.7517 12.6145C11.7213 12.7114 12.6681 12.9604 13.5551 13.3518C13.5877 13.3695 13.6214 13.385 13.6561 13.3984C13.6764 13.4145 13.6985 13.4284 13.722 13.4398C14.7697 14.015 15.369 14.7242 15.8703 15.3241C15.9054 15.3661 15.9564 15.4248 16.0146 15.4967C16.6684 16.3339 17.1913 17.2597 17.5666 18.2443C17.8727 19.046 18.0882 19.8773 18.2093 20.7239C18.2093 20.7239 18.3055 21.3635 18.359 22.0152C18.4445 23.1081 18.2402 27.5502 18.4825 29.8659C18.6524 31.4683 19.0265 35.031 21.5894 36.5035C23.5762 37.6429 25.9621 37.0695 27.2474 36.6237C29.5014 35.8368 31.9609 34.2097 33.9625 31.5926Z" fill="#724FFF"/>
<path d="M28.0925 21.4313V32.3598C28.0925 32.4069 28.0925 32.4535 28.0925 32.5007C28.0266 37.7878 24.2717 42.1695 19.3277 43.103C18.0267 43.3484 16.689 43.3484 15.388 43.103C10.4422 42.1684 6.68791 37.7866 6.62317 32.4995C6.62317 32.4524 6.62317 32.4058 6.62317 32.3586V21.4302H12.2063V32.2787C12.2063 35.1764 14.5137 37.5249 17.3611 37.5249C20.2085 37.5249 22.5112 35.1776 22.5112 32.2787V21.4313H28.0925Z" fill="white"/>
<path d="M9.55667 26.3853C12.0579 26.3853 14.0855 24.4217 14.0855 21.9995C14.0855 19.5773 12.0579 17.6138 9.55667 17.6138C7.05546 17.6138 5.02783 19.5773 5.02783 21.9995C5.02783 24.4217 7.05546 26.3853 9.55667 26.3853Z" fill="white"/>
<path d="M9.55667 16.231C8.37843 16.2302 7.2264 16.5678 6.24631 17.2011C5.26621 17.8344 4.50208 18.735 4.05056 19.7889C3.59904 20.8428 3.48042 22.0027 3.70969 23.1219C3.93896 24.2412 4.50584 25.2694 5.33861 26.0766C6.17138 26.8838 7.23265 27.4336 8.38816 27.6567C9.54368 27.8797 10.7416 27.7659 11.8303 27.3296C12.919 26.8933 13.8496 26.1541 14.5045 25.2055C15.1593 24.257 15.509 23.1416 15.5092 22.0006C15.5068 20.472 14.8791 19.0066 13.7635 17.9252C12.6478 16.8438 11.1351 16.2346 9.55667 16.231ZM9.55667 25.0036C8.91159 25.0028 8.28272 24.8078 7.75714 24.4456C7.23156 24.0833 6.83529 23.5718 6.62317 22.9819C6.50914 22.6665 6.4511 22.3347 6.45152 22.0006C6.45152 21.6059 6.53179 21.2151 6.68775 20.8505C6.84371 20.4859 7.0723 20.1546 7.36048 19.8755C7.64865 19.5965 7.99076 19.3751 8.36728 19.224C8.7438 19.073 9.14735 18.9953 9.55489 18.9953C9.96243 18.9953 10.366 19.073 10.7425 19.224C11.119 19.3751 11.4611 19.5965 11.7493 19.8755C12.0375 20.1546 12.2661 20.4859 12.422 20.8505C12.578 21.2151 12.6583 21.6059 12.6583 22.0006C12.655 22.7961 12.3272 23.5581 11.7464 24.1205C11.1655 24.683 10.3787 25.0004 9.55727 25.0036H9.55667Z" fill="#724FFF"/>
<path d="M7.76649 9.68423C10.0679 9.68423 11.9336 7.87749 11.9336 5.64876C11.9336 3.42002 10.0679 1.61328 7.76649 1.61328C5.46505 1.61328 3.59937 3.42002 3.59937 5.64876C3.59937 7.87749 5.46505 9.68423 7.76649 9.68423Z" fill="#724FFF"/>
<path d="M26.8173 10.1451C29.7102 10.1451 32.0553 7.87401 32.0553 5.07253C32.0553 2.27105 29.7102 0 26.8173 0C23.9244 0 21.5793 2.27105 21.5793 5.07253C21.5793 7.87401 23.9244 10.1451 26.8173 10.1451Z" fill="#5544B7"/>
<path d="M25.3633 16.5884L19.3787 25.422H31.3479L25.3633 16.5884Z" fill="white"/>
</svg>
