<svg width="16" height="16" viewBox="0 0 16 16" fill="none" xmlns="http://www.w3.org/2000/svg">
<path fill-rule="evenodd" clip-rule="evenodd" d="M15.9797 8.1348C15.9797 7.57078 15.9291 7.02845 15.8351 6.50781H8.34375V9.58463H12.6245C12.4401 10.5789 11.8797 11.4213 11.0373 11.9853V13.9811H13.608C15.112 12.5964 15.9797 10.5572 15.9797 8.1348Z" fill="#4285F4"/>
<path fill-rule="evenodd" clip-rule="evenodd" d="M8.34428 15.9087C10.4919 15.9087 12.2924 15.1964 13.6085 13.9816L11.0378 11.9858C10.3256 12.4631 9.41447 12.7451 8.34428 12.7451C6.27258 12.7451 4.51905 11.3459 3.89356 9.46582H1.23615V11.5267C2.54497 14.1262 5.23492 15.9087 8.34428 15.9087Z" fill="#34A853"/>
<path fill-rule="evenodd" clip-rule="evenodd" d="M3.89395 9.46527C3.73487 8.98802 3.64448 8.47823 3.64448 7.95398C3.64448 7.42973 3.73487 6.91994 3.89395 6.44269V4.38184H1.23654C0.697823 5.45565 0.390503 6.67047 0.390503 7.95398C0.390503 9.23749 0.697823 10.4523 1.23654 11.5261L3.89395 9.46527Z" fill="#FBBC05"/>
<path fill-rule="evenodd" clip-rule="evenodd" d="M8.34428 3.16359C9.51209 3.16359 10.5606 3.56491 11.3849 4.3531L13.6663 2.0717C12.2888 0.788186 10.4883 0 8.34428 0C5.23492 0 2.54497 1.78246 1.23615 4.38202L3.89356 6.44287C4.51905 4.5628 6.27258 3.16359 8.34428 3.16359Z" fill="#EA4335"/>
</svg>
