<svg width="155" height="45" viewBox="0 0 155 45" fill="none" xmlns="http://www.w3.org/2000/svg">
<path d="M137.012 29.8887C137.012 28.6696 137.2 27.5392 137.577 26.4974C137.954 25.4334 138.508 24.5136 139.24 23.7378C139.971 22.962 140.858 22.3524 141.9 21.9091C142.964 21.4658 144.172 21.2441 145.524 21.2441C146.876 21.2441 148.073 21.4658 149.114 21.9091C150.178 22.3524 151.076 22.962 151.808 23.7378C152.539 24.5136 153.093 25.4334 153.47 26.4974C153.847 27.5392 154.035 28.6696 154.035 29.8887C154.035 31.1078 153.847 32.2493 153.47 33.3133C153.093 34.3551 152.539 35.2639 151.808 36.0397C151.076 36.8154 150.178 37.425 149.114 37.8683C148.073 38.3116 146.876 38.5333 145.524 38.5333C144.172 38.5333 142.964 38.3116 141.9 37.8683C140.858 37.425 139.971 36.8154 139.24 36.0397C138.508 35.2639 137.954 34.3551 137.577 33.3133C137.2 32.2493 137.012 31.1078 137.012 29.8887ZM141.334 29.8887C141.334 30.5758 141.423 31.2297 141.6 31.8504C141.8 32.471 142.077 33.0141 142.432 33.4795C142.786 33.945 143.218 34.3218 143.728 34.61C144.26 34.876 144.859 35.009 145.524 35.009C146.189 35.009 146.776 34.876 147.286 34.61C147.818 34.3218 148.261 33.945 148.616 33.4795C148.97 33.0141 149.236 32.471 149.414 31.8504C149.613 31.2297 149.713 30.5758 149.713 29.8887C149.713 29.2016 149.613 28.5477 149.414 27.9271C149.236 27.3064 148.97 26.7634 148.616 26.2979C148.261 25.8324 147.818 25.4667 147.286 25.2007C146.776 24.9125 146.189 24.7685 145.524 24.7685C144.859 24.7685 144.26 24.9125 143.728 25.2007C143.218 25.4667 142.786 25.8324 142.432 26.2979C142.077 26.7634 141.8 27.3064 141.6 27.9271C141.423 28.5477 141.334 29.2016 141.334 29.8887Z" fill="#724FFF"/>
<path d="M133.755 14.7275V38.2674H129.633V14.7275H133.755Z" fill="#724FFF"/>
<path d="M126.083 38.1676C125.795 38.2563 125.451 38.3339 125.052 38.4004C124.675 38.489 124.188 38.5333 123.589 38.5333C121.838 38.5333 120.419 38.0235 119.333 37.0039C118.269 35.9843 117.737 34.4327 117.737 32.3492V25.0345H115.144V21.5102H117.737V17.3209L121.86 14.7275V21.5102H126.282V25.0345H121.86V32.2827C121.86 33.3244 122.049 34.0448 122.425 34.4438C122.802 34.8206 123.345 35.009 124.055 35.009C124.431 35.009 124.775 34.9647 125.085 34.876C125.396 34.7874 125.728 34.6544 126.083 34.4771V38.1676Z" fill="#724FFF"/>
<path d="M102.196 21.5101V24.2032C102.817 23.3166 103.559 22.6073 104.424 22.0753C105.31 21.5212 106.297 21.2441 107.383 21.2441C108.89 21.2441 110.12 21.6653 111.073 22.5076C112.049 23.3499 112.536 24.6133 112.536 26.2979V38.2673H108.414V27.5281C108.414 26.5306 108.192 25.8213 107.749 25.4002C107.305 24.979 106.729 24.7685 106.02 24.7685C105.51 24.7685 105.022 24.9236 104.557 25.2339C104.113 25.5221 103.715 25.9543 103.36 26.5306C103.005 27.1069 102.717 27.8162 102.495 28.6585C102.296 29.5008 102.196 30.4761 102.196 31.5844V38.2673H98.0734V21.5101H102.196Z" fill="#724FFF"/>
<path d="M94.8818 31.2186H83.3446C83.3668 31.6841 83.4665 32.1496 83.6439 32.6151C83.8212 33.0584 84.0761 33.4574 84.4086 33.812C84.7411 34.1667 85.14 34.4548 85.6055 34.6765C86.0931 34.8981 86.6584 35.009 87.3012 35.009C88.2543 35.009 89.0301 34.8095 89.6286 34.4105C90.227 33.9893 90.7701 33.3909 91.2577 32.6151L94.5826 33.8453C94.2501 34.5324 93.8622 35.1641 93.4189 35.7404C92.9756 36.3167 92.4547 36.8154 91.8562 37.2366C91.2577 37.6356 90.5595 37.957 89.7616 38.2008C88.9858 38.4224 88.0881 38.5333 87.0684 38.5333C85.6277 38.5333 84.3975 38.2673 83.3779 37.7353C82.3583 37.2033 81.527 36.5273 80.8842 35.7072C80.2414 34.8649 79.7649 33.9339 79.4546 32.9143C79.1664 31.8947 79.0223 30.8862 79.0223 29.8887C79.0223 28.8913 79.1664 27.8827 79.4546 26.8631C79.7649 25.8435 80.2414 24.9236 80.8842 24.1035C81.527 23.2612 82.3583 22.5741 83.3779 22.0421C84.3975 21.5101 85.6277 21.2441 87.0684 21.2441C88.4649 21.2441 89.6507 21.5101 90.626 22.0421C91.6235 22.5519 92.4325 23.2169 93.0531 24.037C93.6959 24.835 94.1614 25.7216 94.4496 26.6969C94.7377 27.6722 94.8818 28.6142 94.8818 29.523V31.2186ZM87.0684 24.7685C86.5365 24.7685 86.0599 24.8682 85.6388 25.0677C85.2398 25.245 84.8851 25.4888 84.5748 25.7992C84.2867 26.0873 84.0428 26.4198 83.8433 26.7966C83.6439 27.1734 83.5109 27.5613 83.4444 27.9603H90.6593C90.5706 27.5392 90.4376 27.1402 90.2603 26.7634C90.083 26.3866 89.8502 26.0541 89.5621 25.7659C89.2739 25.4556 88.9193 25.2118 88.4981 25.0345C88.0991 24.8571 87.6226 24.7685 87.0684 24.7685Z" fill="#724FFF"/>
<path d="M66.9838 21.5098L70.3751 33.1799L73.7665 21.5098H77.9225L72.237 38.2669H68.5132L62.8278 21.5098H66.9838Z" fill="#724FFF"/>
<path d="M60.5477 29.4229C60.5477 30.9745 60.326 32.3266 59.8827 33.4792C59.4615 34.6097 58.8631 35.5517 58.0873 36.3053C57.3336 37.059 56.4249 37.6242 55.3609 38.001C54.297 38.3557 53.1333 38.533 51.8698 38.533C50.6064 38.533 49.4427 38.3557 48.3788 38.001C47.3148 37.6242 46.3949 37.059 45.6191 36.3053C44.8655 35.5517 44.267 34.6097 43.8237 33.4792C43.4026 32.3266 43.192 30.9745 43.192 29.4229V14.9932H47.5143V29.4894C47.5143 32.8586 48.9661 34.5432 51.8698 34.5432C54.7735 34.5432 56.2254 32.8586 56.2254 29.4894V14.9932H60.5477V29.4229Z" fill="#724FFF"/>
<path d="M31.8343 21.6561C31.801 24.3605 31.7695 27.0648 31.7399 29.7689C29.8694 32.2146 27.5709 33.7353 25.4644 34.4679C24.2633 34.8845 22.0336 35.4204 20.1769 34.3556C17.7819 32.9795 17.4322 29.6501 17.2734 28.1526C17.0464 25.9885 17.2379 21.8351 17.158 20.8159C17.108 20.2069 17.0181 19.6092 17.0181 19.6092C16.9048 18.8189 16.7034 18.0429 16.4175 17.2946C16.0661 16.3755 15.5771 15.5114 14.9661 14.7301C15.8486 13.7153 17.8318 12.4032 20.0565 11.9888C24.7645 11.1164 28.5544 14.6538 28.7298 14.821C31.4557 17.4451 31.7754 20.7176 31.8343 21.6561Z" fill="#5544B7"/>
<path d="M31.74 29.7693C31.6784 30.1837 31.6002 30.6578 31.4847 31.1867H31.4775C31.2403 32.2547 30.9031 33.2995 30.4701 34.3081C29.9194 35.5607 29.2255 36.7496 28.4014 37.8526C27.3723 39.2308 25.6089 41.5985 22.2819 43.2407C20.0425 44.341 17.5597 44.8959 15.0489 44.857C12.0577 44.7909 9.87299 43.8723 9.17306 43.5562C3.58197 41.0374 1.58764 35.81 1.26349 34.9558C1.20798 34.8118 1.16635 34.6973 1.13805 34.6194C0.154484 31.8737 0.0851018 29.1673 0.0295961 27.0779C0.0201601 26.75 -0.02924 24.5516 0.0295961 21.6576C0.0345916 21.463 0.0368122 21.2275 0.0412526 21.1609C0.284923 16.0544 4.27412 11.9972 9.17084 11.9902H9.17584C9.37836 12.0147 9.58232 12.0262 9.7864 12.0246H9.81471C9.84384 12.0276 9.87311 12.029 9.90241 12.0289C9.9513 12.0281 10.0002 12.0297 10.0489 12.0338C10.955 12.1243 11.8399 12.3571 12.6688 12.7229C12.6993 12.7393 12.7308 12.7539 12.7632 12.7664C12.7822 12.7815 12.8028 12.7945 12.8248 12.8051C13.8039 13.3426 14.364 14.0054 14.8324 14.566C14.8652 14.6053 14.9129 14.6601 14.9673 14.7273C15.5782 15.5097 16.0669 16.3749 16.4177 17.295C16.7037 18.0442 16.9051 18.8211 17.0182 19.6123C17.0182 19.6123 17.1082 20.21 17.1581 20.819C17.238 21.8403 17.0471 25.9916 17.2736 28.1557C17.4323 29.6532 17.782 32.9826 20.1771 34.3587C22.0337 35.4235 24.2634 34.8876 25.4646 34.471C27.571 33.7357 29.8695 32.215 31.74 29.7693Z" fill="#724FFF"/>
<path d="M26.2541 20.2726V30.4855C26.2541 30.5295 26.2541 30.5731 26.2541 30.6172C26.1925 35.5581 22.6834 39.6529 18.0631 40.5253C16.8473 40.7546 15.5972 40.7546 14.3814 40.5253C9.75945 39.6518 6.25093 35.557 6.19043 30.6161C6.19043 30.572 6.19043 30.5285 6.19043 30.4844V20.2715H11.408V30.4097C11.408 33.1177 13.5644 35.3124 16.2253 35.3124C18.8863 35.3124 21.0382 33.1188 21.0382 30.4097V20.2726H26.2541Z" fill="white"/>
<path d="M8.93056 24.9023C11.268 24.9023 13.1629 23.0673 13.1629 20.8037C13.1629 18.5401 11.268 16.7051 8.93056 16.7051C6.59311 16.7051 4.69824 18.5401 4.69824 20.8037C4.69824 23.0673 6.59311 24.9023 8.93056 24.9023Z" fill="white"/>
<path d="M8.93091 15.4131C7.82981 15.4123 6.75321 15.7278 5.83729 16.3197C4.92137 16.9115 4.20727 17.7532 3.78531 18.7381C3.36336 19.723 3.2525 20.8069 3.46676 21.8529C3.68102 22.8988 4.21078 23.8597 4.98903 24.6141C5.76728 25.3684 6.75905 25.8823 7.83891 26.0907C8.91877 26.2991 10.0382 26.1928 11.0556 25.785C12.0731 25.3773 12.9428 24.6865 13.5547 23.8C14.1667 22.9136 14.4935 21.8713 14.4937 20.805C14.4915 19.3764 13.9049 18.007 12.8623 16.9964C11.8197 15.9858 10.406 15.4165 8.93091 15.4131ZM8.93091 23.6114C8.32806 23.6106 7.74037 23.4284 7.2492 23.0898C6.75804 22.7513 6.38771 22.2733 6.18948 21.722C6.08292 21.4273 6.02868 21.1172 6.02907 20.805C6.02907 20.4361 6.10409 20.0709 6.24983 19.7302C6.39558 19.3894 6.60921 19.0798 6.87851 18.819C7.14782 18.5582 7.46753 18.3513 7.8194 18.2102C8.17126 18.0691 8.54839 17.9964 8.92925 17.9964C9.3101 17.9964 9.68723 18.0691 10.0391 18.2102C10.391 18.3513 10.7107 18.5582 10.98 18.819C11.2493 19.0798 11.4629 19.3894 11.6087 19.7302C11.7544 20.0709 11.8294 20.4361 11.8294 20.805C11.8264 21.5484 11.5201 22.2604 10.9772 22.7861C10.4344 23.3118 9.69911 23.6084 8.93147 23.6114H8.93091Z" fill="#724FFF"/>
<path d="M7.2605 9.29543C9.41125 9.29543 11.1548 7.60699 11.1548 5.52418C11.1548 3.44138 9.41125 1.75293 7.2605 1.75293C5.10974 1.75293 3.36621 3.44138 3.36621 5.52418C3.36621 7.60699 5.10974 9.29543 7.2605 9.29543Z" fill="#724FFF"/>
<path d="M25.062 9.72592C27.7655 9.72592 29.9571 7.60357 29.9571 4.98552C29.9571 2.36747 27.7655 0.245117 25.062 0.245117C22.3586 0.245117 20.167 2.36747 20.167 4.98552C20.167 7.60357 22.3586 9.72592 25.062 9.72592Z" fill="#5544B7"/>
<path d="M23.7031 15.7471L18.1104 24.0023H29.2959L23.7031 15.7471Z" fill="white"/>
</svg>
