<svg width="100" height="170" viewBox="0 0 100 170" fill="none" xmlns="http://www.w3.org/2000/svg">
<ellipse cx="92.719" cy="7.30216" rx="7.30216" ry="7.28102" transform="rotate(90 92.719 7.30216)" fill="white"/>
<ellipse cx="92.719" cy="32.7553" rx="7.30216" ry="7.28102" transform="rotate(90 92.719 32.7553)" fill="white"/>
<ellipse cx="92.719" cy="57.7914" rx="7.30216" ry="7.28102" transform="rotate(90 92.719 57.7914)" fill="white"/>
<ellipse cx="92.719" cy="83.6615" rx="7.30216" ry="7.28102" transform="rotate(90 92.719 83.6615)" fill="white"/>
<ellipse cx="92.719" cy="108.698" rx="7.30216" ry="7.28102" transform="rotate(90 92.719 108.698)" fill="white"/>
<ellipse cx="71.5" cy="7.30216" rx="7.30216" ry="7.28102" transform="rotate(90 71.5 7.30216)" fill="white"/>
<ellipse cx="71.5" cy="32.7553" rx="7.30216" ry="7.28102" transform="rotate(90 71.5 32.7553)" fill="white"/>
<ellipse cx="71.5" cy="57.7914" rx="7.30216" ry="7.28102" transform="rotate(90 71.5 57.7914)" fill="white"/>
<ellipse cx="71.5" cy="83.6615" rx="7.30216" ry="7.28102" transform="rotate(90 71.5 83.6615)" fill="white"/>
<ellipse cx="71.5" cy="108.698" rx="7.30216" ry="7.28102" transform="rotate(90 71.5 108.698)" fill="white"/>
<ellipse cx="50.281" cy="7.30216" rx="7.30216" ry="7.28102" transform="rotate(90 50.281 7.30216)" fill="white"/>
<ellipse cx="50.281" cy="32.7553" rx="7.30216" ry="7.28102" transform="rotate(90 50.281 32.7553)" fill="white"/>
<ellipse cx="50.281" cy="57.7914" rx="7.30216" ry="7.28102" transform="rotate(90 50.281 57.7914)" fill="white"/>
<ellipse cx="50.281" cy="83.6615" rx="7.30216" ry="7.28102" transform="rotate(90 50.281 83.6615)" fill="white"/>
<ellipse cx="50.281" cy="108.698" rx="7.30216" ry="7.28102" transform="rotate(90 50.281 108.698)" fill="white"/>
<ellipse cx="50.5912" cy="58.491" rx="7.49101" ry="7.40876" transform="rotate(90 50.5912 58.491)" fill="#724FFF"/>
<ellipse cx="50.5912" cy="84.6023" rx="7.49101" ry="7.40876" transform="rotate(90 50.5912 84.6023)" fill="#724FFF"/>
<ellipse cx="50.5912" cy="110.286" rx="7.49101" ry="7.40876" transform="rotate(90 50.5912 110.286)" fill="#724FFF"/>
<ellipse cx="50.5912" cy="136.826" rx="7.491" ry="7.40876" transform="rotate(90 50.5912 136.826)" fill="#724FFF"/>
<ellipse cx="50.5912" cy="162.509" rx="7.49101" ry="7.40876" transform="rotate(90 50.5912 162.509)" fill="#724FFF"/>
<ellipse cx="29" cy="58.491" rx="7.49101" ry="7.40876" transform="rotate(90 29 58.491)" fill="#724FFF"/>
<ellipse cx="29" cy="84.6023" rx="7.49101" ry="7.40876" transform="rotate(90 29 84.6023)" fill="#724FFF"/>
<ellipse cx="29" cy="110.286" rx="7.49101" ry="7.40876" transform="rotate(90 29 110.286)" fill="#724FFF"/>
<ellipse cx="29" cy="136.826" rx="7.491" ry="7.40876" transform="rotate(90 29 136.826)" fill="#724FFF"/>
<ellipse cx="29" cy="162.509" rx="7.49101" ry="7.40876" transform="rotate(90 29 162.509)" fill="#724FFF"/>
<ellipse cx="7.40875" cy="58.491" rx="7.49101" ry="7.40876" transform="rotate(90 7.40875 58.491)" fill="#724FFF"/>
<ellipse cx="7.40875" cy="84.6023" rx="7.49101" ry="7.40876" transform="rotate(90 7.40875 84.6023)" fill="#724FFF"/>
<ellipse cx="7.40875" cy="110.286" rx="7.49101" ry="7.40876" transform="rotate(90 7.40875 110.286)" fill="#724FFF"/>
<ellipse cx="7.40875" cy="136.826" rx="7.491" ry="7.40876" transform="rotate(90 7.40875 136.826)" fill="#724FFF"/>
<ellipse cx="7.40875" cy="162.509" rx="7.49101" ry="7.40876" transform="rotate(90 7.40875 162.509)" fill="#724FFF"/>
</svg>
